<svg width="24" height="24" viewBox="0 0 24 24" fill="none" xmlns="http://www.w3.org/2000/svg">
                                                      <path d="M11.9999 21.594C17.3024 21.594 21.5999 17.2965 21.5999 11.994C21.5999 6.69154 17.3024 2.39404 11.9999 2.39404C6.6974 2.39404 2.3999 6.69154 2.3999 11.994C2.3999 17.2965 6.6974 21.594 11.9999 21.594ZM10.7999 8.39404C10.7999 7.73029 11.3362 7.19404 11.9999 7.19404C12.6637 7.19404 13.1999 7.73029 13.1999 8.39404C13.1999 9.05779 12.6637 9.59404 11.9999 9.59404C11.3362 9.59404 10.7999 9.05779 10.7999 8.39404ZM10.4999 10.794H12.2999C12.7987 10.794 13.1999 11.1953 13.1999 11.694V14.994H13.4999C13.9987 14.994 14.3999 15.3953 14.3999 15.894C14.3999 16.3928 13.9987 16.794 13.4999 16.794H10.4999C10.0012 16.794 9.5999 16.3928 9.5999 15.894C9.5999 15.3953 10.0012 14.994 10.4999 14.994H11.3999V12.594H10.4999C10.0012 12.594 9.5999 12.1928 9.5999 11.694C9.5999 11.1953 10.0012 10.794 10.4999 10.794Z" fill="white"></path>
                                                    </svg>