<svg width="16" height="16" viewBox="0 0 16 16" fill="none" xmlns="http://www.w3.org/2000/svg">
<path d="M8.00002 2.66669C8.17683 2.66669 8.3464 2.73693 8.47143 2.86195C8.59645 2.98697 8.66669 3.15654 8.66669 3.33335V7.33335H12.6667C12.8435 7.33335 13.0131 7.40359 13.1381 7.52862C13.2631 7.65364 13.3334 7.82321 13.3334 8.00002C13.3334 8.17683 13.2631 8.3464 13.1381 8.47143C13.0131 8.59645 12.8435 8.66669 12.6667 8.66669H8.66669V12.6667C8.66669 12.8435 8.59645 13.0131 8.47143 13.1381C8.3464 13.2631 8.17683 13.3334 8.00002 13.3334C7.82321 13.3334 7.65364 13.2631 7.52862 13.1381C7.40359 13.0131 7.33335 12.8435 7.33335 12.6667V8.66669H3.33335C3.15654 8.66669 2.98697 8.59645 2.86195 8.47143C2.73693 8.3464 2.66669 8.17683 2.66669 8.00002C2.66669 7.82321 2.73693 7.65364 2.86195 7.52862C2.98697 7.40359 3.15654 7.33335 3.33335 7.33335H7.33335V3.33335C7.33335 3.15654 7.40359 2.98697 7.52862 2.86195C7.65364 2.73693 7.82321 2.66669 8.00002 2.66669Z" fill="#127E51"/>
</svg>
