<svg width="14" height="16" viewBox="0 0 14 16" fill="none" xmlns="http://www.w3.org/2000/svg">
<g clip-path="url(#clip0_31_17)">
<path d="M11.55 5.41667L10.878 11.9484C10.7764 12.9386 10.726 13.4332 10.494 13.8073C10.2905 14.1366 9.99127 14.4 9.634 14.5641C9.2284 14.75 8.718 14.75 7.694 14.75H5.806C4.7828 14.75 4.2716 14.75 3.866 14.5633C3.50844 14.3993 3.20889 14.136 3.0052 13.8066C2.7748 13.4332 2.7236 12.9386 2.6212 11.9484L1.95 5.41667M7.95 10.4722V6.58333M5.55 10.4722V6.58333M0.75 3.47222H4.442M4.442 3.47222L4.7508 1.394C4.8404 1.016 5.1636 0.75 5.5348 0.75H7.9652C8.3364 0.75 8.6588 1.016 8.7492 1.394L9.058 3.47222M4.442 3.47222H9.058M9.058 3.47222H12.75" stroke="#FF7272" stroke-width="1.5" stroke-linecap="round" stroke-linejoin="round"/>
</g>
<defs>
<clipPath id="clip0_31_17">
<rect width="14" height="16" fill="white"/>
</clipPath>
</defs>
</svg>
