<svg width="349" height="15" viewBox="0 0 349 15" fill="none" xmlns="http://www.w3.org/2000/svg">
<g clip-path="url(#clip0_31_26)">
<path d="M0 15V0H349V15L343.656 10L338.149 15L332.643 10L327.299 15L321.793 10L316.286 15L310.942 10L305.436 15L299.929 10L294.585 15L289.079 10L283.573 15L278.228 10L272.722 15L267.216 10L261.871 15L256.365 10L250.859 15L245.515 10L240.008 15L234.502 10L229.158 15L223.652 10L218.145 15L212.801 10L207.295 15L201.788 10L196.444 15L190.938 10L185.432 15L180.087 10L174.581 15L169.237 10L163.73 15L158.224 10L152.718 15L147.374 10L141.867 15L136.361 10L131.017 15L125.51 10L120.004 15L114.66 10L109.154 15L103.647 10L98.303 15L92.7968 10L87.2905 15L81.9462 10L76.4399 15L70.9336 10L65.5893 15L60.0831 10L54.5768 15L49.0705 10L43.7262 15L38.22 10L32.7137 15L27.3694 10L21.8631 15L16.3568 10L11.0125 15L5.50626 10L0 15Z" fill="white"/>
</g>
<defs>
<clipPath id="clip0_31_26">
<rect width="349" height="15" fill="white"/>
</clipPath>
</defs>
</svg>
