<svg xmlns="http://www.w3.org/2000/svg" width="375" height="70" viewBox="0 0 375 70" fill="none"><g clip-path="url(#clip0_84_66)"><mask id="mask0_84_66" style="mask-type:luminance" maskUnits="userSpaceOnUse" x="0" y="0" width="375" height="70"><path d="M375 0H0V70H375V0Z" fill="white"/></mask><g mask="url(#mask0_84_66)"><path d="M345 0C361.569 0 375 13.4315 375 30V89V71C375 71 353.856 71 335 71H40C21.1438 71 8.5 71 7.15374e-07 71C-2.63732e-08 65 1.17738e-10 87.856 1.17738e-10 69V30C1.17738e-10 13.4315 13.4315 0 30 0H149.494C153.456 0 155.437 0 157.342 0.373233C158.926 0.683591 160.467 1.18454 161.93 1.86515C163.69 2.68364 165.292 3.84893 168.497 6.17952C175.436 11.2264 178.906 13.7498 182.711 14.6882C185.856 15.464 189.144 15.464 192.289 14.6882C196.094 13.7498 199.564 11.2264 206.503 6.17952C209.708 3.84893 211.31 2.68364 213.07 1.86515C214.533 1.18454 216.074 0.683591 217.658 0.373233C219.563 0 221.544 0 225.506 0H345Z" fill="url(#paint0_linear_84_66)"/><path d="M193.5 0H181.5C180.672 0 180 0.671573 180 1.5C180 2.32843 180.672 3 181.5 3H193.5C194.328 3 195 2.32843 195 1.5C195 0.671573 194.328 0 193.5 0Z" fill="url(#paint1_linear_84_66)"/></g></g><defs><linearGradient id="paint0_linear_84_66" x1="-1.01628e-05" y1="16.125" x2="308.17" y2="-87.5565" gradientUnits="userSpaceOnUse"><stop stop-color="#333333"/><stop offset="1" stop-color="#181818"/></linearGradient><linearGradient id="paint1_linear_84_66" x1="180" y1="0.374999" x2="190.28" y2="-5.57368" gradientUnits="userSpaceOnUse"><stop stop-color="#333333"/><stop offset="1" stop-color="#181818"/></linearGradient><clipPath id="clip0_84_66"><rect width="375" height="70" fill="white"/></clipPath></defs></svg>