<svg width="16" height="16" viewBox="0 0 16 16" fill="none" xmlns="http://www.w3.org/2000/svg">
                            <path d="M4.55078 5.2498C4.55078 5.06415 4.62453 4.88611 4.75581 4.75483C4.88708 4.62355 5.06513 4.5498 5.25078 4.5498H10.7508C10.9364 4.5498 11.1145 4.62355 11.2458 4.75483C11.377 4.88611 11.4508 5.06415 11.4508 5.2498C11.4508 5.43546 11.377 5.6135 11.2458 5.74478C11.1145 5.87605 10.9364 5.9498 10.7508 5.9498H5.25078C5.15886 5.9498 5.06783 5.9317 4.9829 5.89652C4.89797 5.86134 4.82081 5.80978 4.75581 5.74478C4.69081 5.67978 4.63924 5.60261 4.60407 5.51768C4.56889 5.43276 4.55078 5.34173 4.55078 5.2498Z" fill="#453A3A"></path>
                            <path d="M5.00078 7.0498C4.81513 7.0498 4.63708 7.12355 4.50581 7.25483C4.37453 7.38611 4.30078 7.56415 4.30078 7.7498C4.30078 7.93546 4.37453 8.1135 4.50581 8.24478C4.63708 8.37606 4.81513 8.4498 5.00078 8.4498H7.25078C7.43643 8.4498 7.61448 8.37606 7.74576 8.24478C7.87703 8.1135 7.95078 7.93546 7.95078 7.7498C7.95078 7.56415 7.87703 7.38611 7.74576 7.25483C7.61448 7.12355 7.43643 7.0498 7.25078 7.0498H5.00078Z" fill="#453A3A"></path>
                            <path fill-rule="evenodd" clip-rule="evenodd" d="M1.5 4.25C1.5 3.52065 1.78973 2.82118 2.30546 2.30546C2.82118 1.78973 3.52065 1.5 4.25 1.5H11.75C12.4793 1.5 13.1788 1.78973 13.6945 2.30546C14.2103 2.82118 14.5 3.52065 14.5 4.25V9.75C14.5 9.949 14.421 10.14 14.28 10.28L10.28 14.28C10.1395 14.4207 9.94884 14.4998 9.75 14.5H4.25C3.52065 14.5 2.82118 14.2103 2.30546 13.6945C1.78973 13.1788 1.5 12.4793 1.5 11.75V4.25ZM4.25 3C3.56 3 3 3.56 3 4.25V11.75C3 12.44 3.56 13 4.25 13H9V10.75C9 9.784 9.784 9 10.75 9H13V4.25C13 3.56 12.44 3 11.75 3H4.25ZM11.94 10.5H10.75C10.6837 10.5 10.6201 10.5263 10.5732 10.5732C10.5263 10.6201 10.5 10.6837 10.5 10.75V11.94L11.94 10.5Z" fill="#453A3A"></path>
                          </svg>