<svg width="83" height="110" viewBox="0 0 83 110" fill="none" xmlns="http://www.w3.org/2000/svg">
<path d="M78.8024 2H4.17701C3.00569 2 2.08508 3.00208 2.18418 4.1692L10.8446 106.169C10.9325 107.204 11.7984 108 12.8374 108H69.1798C70.2116 108 71.0741 107.215 71.171 106.188L80.7936 4.18785C80.9043 3.01428 79.9812 2 78.8024 2Z" stroke="black" stroke-width="4"/>
<path d="M10.9606 54.5036L15.5322 100.322C15.6343 101.345 16.4947 102.124 17.5224 102.124L64.6716 102.124C65.7069 102.124 66.571 101.334 66.6636 100.303L70.81 54.1553C70.9505 52.5913 69.2497 51.3359 67.7346 51.7482C62.1058 53.2799 51.7144 54.7352 44.3143 51.5417C29.0251 44.9435 19.4707 50.582 12.7436 52.1602C11.6631 52.4137 10.8504 53.3992 10.9606 54.5036Z" fill="#FEAE0D"/>
</svg>
