<svg width="84" height="84" viewBox="0 0 84 84" fill="none" xmlns="http://www.w3.org/2000/svg">
<path d="M61.7827 0H22.1019C9.89537 0 0 9.89537 0 22.1019V61.7827C0 73.9892 9.89537 83.8846 22.1019 83.8846H61.7827C73.9892 83.8846 83.8846 73.9892 83.8846 61.7827V22.1019C83.8846 9.89537 73.9892 0 61.7827 0Z" fill="#00B0B9"/>
<path d="M46.5797 15.7729C46.5797 18.3763 44.4102 20.5458 41.8068 20.5458C39.2034 20.5458 37.0339 18.3763 37.0339 15.7729C37.0339 13.1695 39.2034 11 41.8068 11C44.4102 11 46.5797 13.1695 46.5797 15.7729ZM41.8068 24.4508C38.9864 24.4508 36.8169 26.6203 36.8169 29.4407C36.8169 32.261 38.9864 34.4305 41.8068 34.4305C44.6271 34.4305 46.7966 32.261 46.7966 29.4407C46.7966 26.6203 44.6271 24.4508 41.8068 24.4508ZM41.8068 37.9017C38.9864 37.9017 36.6 40.2881 36.6 43.1085C36.6 45.9288 38.9864 48.3153 41.8068 48.3153C44.6271 48.3153 47.0136 45.9288 47.0136 43.1085C47.0136 40.2881 44.6271 37.9017 41.8068 37.9017ZM41.8068 51.5695C38.9864 51.5695 36.8169 53.739 36.8169 56.5593C36.8169 59.3797 38.9864 61.5492 41.8068 61.5492C44.6271 61.5492 46.7966 59.3797 46.7966 56.5593C46.7966 53.9559 44.6271 51.5695 41.8068 51.5695ZM41.8068 65.4542C39.2034 65.4542 37.0339 67.6237 37.0339 70.2271C37.0339 72.8305 39.2034 75 41.8068 75C44.4102 75 46.5797 72.8305 46.5797 70.2271C46.5797 67.6237 44.4102 65.4542 41.8068 65.4542ZM55.0407 23.8C52.0034 23.8 49.4 26.4034 49.4 29.4407C49.4 32.478 52.0034 35.0814 55.0407 35.0814C58.078 35.0814 60.6814 32.478 60.6814 29.4407C60.6814 26.4034 58.078 23.8 55.0407 23.8ZM55.0407 37.2508C51.7864 37.2508 49.1831 39.8542 49.1831 43.1085C49.1831 46.3627 51.7864 48.9661 55.0407 48.9661C58.2949 48.9661 60.8983 46.3627 60.8983 43.1085C60.8983 39.8542 58.2949 37.2508 55.0407 37.2508ZM55.0407 50.9186C52.0034 50.9186 49.4 53.522 49.4 56.5593C49.4 59.5966 52.0034 62.2 55.0407 62.2C58.078 62.2 60.6814 59.5966 60.6814 56.5593C60.6814 53.522 58.078 50.9186 55.0407 50.9186ZM68.7085 36.6C65.2373 36.6 62.2 39.4203 62.2 43.1085C62.2 46.5797 65.0203 49.6169 68.7085 49.6169C72.3966 49.6169 75.217 46.7966 75.217 43.1085C75 39.4203 72.1797 36.6 68.7085 36.6ZM28.3559 25.1017C25.9695 25.1017 24.0169 27.0542 24.0169 29.4407C24.0169 31.8271 25.9695 33.7797 28.3559 33.7797C30.7424 33.7797 32.6949 31.8271 32.6949 29.4407C32.6949 27.0542 30.7424 25.1017 28.3559 25.1017ZM28.3559 38.5525C25.7525 38.5525 23.8 40.5051 23.8 43.1085C23.8 45.7119 25.7525 47.6644 28.3559 47.6644C30.9593 47.6644 32.9119 45.7119 32.9119 43.1085C32.9119 40.5051 30.9593 38.5525 28.3559 38.5525ZM28.3559 52.2203C25.9695 52.2203 24.0169 54.1729 24.0169 56.5593C24.0169 58.9458 25.9695 60.8983 28.3559 60.8983C30.7424 60.8983 32.6949 58.9458 32.6949 56.5593C32.6949 54.1729 30.7424 52.2203 28.3559 52.2203ZM14.9051 39.2034C12.7356 39.2034 11 40.939 11 43.1085C11 45.278 12.7356 47.0136 14.9051 47.0136C17.0746 47.0136 18.8102 45.278 18.8102 43.1085C18.8102 40.939 17.0746 39.2034 14.9051 39.2034Z" fill="white"/>
</svg>
