<svg width="84" height="84" viewBox="0 0 84 84" fill="none" xmlns="http://www.w3.org/2000/svg">
<g clip-path="url(#clip0_76_841)">
<path d="M61.8404 0.0577393H22.1596C9.95305 0.0577393 0.0576782 9.95311 0.0576782 22.1597V61.8404C0.0576782 74.047 9.95305 83.9424 22.1596 83.9424H61.8404C74.0469 83.9424 83.9423 74.047 83.9423 61.8404V22.1597C83.9423 9.95311 74.0469 0.0577393 61.8404 0.0577393Z" fill="white"/>
<path d="M61.8462 0.115355C64.7412 0.113686 67.6083 0.682779 70.2832 1.79009C72.9582 2.89739 75.3886 4.52118 77.4355 6.56859C79.4823 8.61599 81.1055 11.0468 82.2121 13.7221C83.3187 16.3973 83.887 19.2645 83.8846 22.1596V61.8461C83.8863 64.7407 83.3174 67.6073 82.2104 70.2818C81.1035 72.9564 79.4802 75.3866 77.4334 77.4334C75.3866 79.4802 72.9565 81.1035 70.2819 82.2104C67.6073 83.3173 64.7408 83.8863 61.8462 83.8846H22.1596C19.2645 83.887 16.3974 83.3187 13.7221 82.2121C11.0469 81.1055 8.61602 79.4823 6.56862 77.4354C4.52122 75.3886 2.89742 72.9581 1.79012 70.2832C0.682811 67.6082 0.113715 64.7412 0.115385 61.8461V22.1596C0.113716 19.265 0.682622 16.3984 1.78957 13.7239C2.89651 11.0493 4.51979 8.61911 6.56658 6.57232C8.61337 4.52553 11.0435 2.90225 13.7181 1.7953C16.3927 0.688358 19.2592 0.119456 22.1538 0.121124H61.8462M61.8462 0.00573982H22.1596C9.92308 -2.94118e-05 0 9.92304 0 22.1596V61.8461C0 74.085 9.92308 84 22.1538 84H61.8462C74.085 84 84 74.0769 84 61.8461V22.1596C84 9.92074 74.0769 0.00573982 61.8462 0.00573982Z" fill="black"/>
<path d="M75.0969 21.2146C75.0969 15.4338 70.3096 10.7469 64.4031 10.7469C61.9009 10.7403 59.4743 11.6038 57.5389 13.1896C55.6029 11.6038 53.176 10.7403 50.6735 10.7469C44.7669 10.7469 39.9796 15.4338 39.9796 21.2146C39.9785 23.4722 40.7205 25.6675 42.0912 27.4615L42.0981 27.4684C42.4917 27.9847 42.932 28.4636 43.4135 28.8992L57.5389 44.2626L71.6538 28.9084C72.7357 27.9396 73.6015 26.7537 74.1947 25.4281C74.7879 24.1025 75.0953 22.6668 75.0969 21.2146Z" fill="url(#paint0_linear_76_841)"/>
</g>
<defs>
<linearGradient id="paint0_linear_76_841" x1="50.5592" y1="9.12571" x2="67.5185" y2="38.5003" gradientUnits="userSpaceOnUse">
<stop stop-color="#FF6AD2"/>
<stop offset="0.1" stop-color="#FE65C9"/>
<stop offset="0.27" stop-color="#FB58B0"/>
<stop offset="0.48" stop-color="#F74387"/>
<stop offset="0.72" stop-color="#F1254E"/>
<stop offset="1" stop-color="#E90006"/>
</linearGradient>
<clipPath id="clip0_76_841">
<rect width="84" height="84" fill="white"/>
</clipPath>
</defs>
</svg>
