<svg width="60" height="60" viewBox="0 0 60 60" fill="none" xmlns="http://www.w3.org/2000/svg">
<g clip-path="url(#clip0_56_345)">
<path d="M30 60C22.0435 60 14.4129 56.8393 8.7868 51.2132C3.16071 45.5871 0 37.9565 0 30C0 22.0435 3.16071 14.4129 8.7868 8.7868C14.4129 3.16071 22.0435 0 30 0C37.9565 0 45.5871 3.16071 51.2132 8.7868C56.8393 14.4129 60 22.0435 60 30C60 37.9565 56.8393 45.5871 51.2132 51.2132C45.5871 56.8393 37.9565 60 30 60ZM43.8281 17.0742C42.5742 16.1602 40.8164 16.4414 39.9023 17.6953L25.9102 36.9375L19.8047 30.832C18.7031 29.7305 16.9219 29.7305 15.832 30.832C14.7422 31.9336 14.7305 33.7148 15.832 34.8047L24.2695 43.2422C24.8555 43.8281 25.6523 44.1211 26.4727 44.0625C27.293 44.0039 28.043 43.582 28.5234 42.9141L44.4492 21C45.3633 19.7461 45.082 17.9883 43.8281 17.0742Z" fill="#3CAF47"/>
</g>
<defs>
<clipPath id="clip0_56_345">
<rect width="60" height="60" fill="white"/>
</clipPath>
</defs>
</svg>
