<svg width="20" height="20" viewBox="0 0 20 20" fill="none" xmlns="http://www.w3.org/2000/svg">
<g clip-path="url(#clip0_1_572)">
<path d="M19.2477 6.65633C18.7884 6.19661 18.043 6.19661 17.5837 6.65633L16.0276 8.21206C15.6016 8.63807 14.8908 8.55371 14.5738 8.0414C14.5672 8.03082 14.5609 8.02023 14.5542 8.00964C14.3251 7.64325 14.3836 7.16665 14.6888 6.86148L19.2477 2.30217C19.705 1.84522 19.7092 1.09927 19.2477 0.638182C18.7887 0.178379 18.0426 0.178497 17.5837 0.638182L12.964 5.2575C12.6584 5.5631 12.1855 5.61444 11.8205 5.39557C11.28 5.09119 11.1733 4.3588 11.6122 3.91986L13.2295 2.30213C13.6893 1.8428 13.6893 1.09748 13.2295 0.638143C12.7706 0.178418 12.0245 0.178379 11.5656 0.638143L9.61875 2.58456C8.62554 3.57777 7.39815 4.31328 6.04324 4.68319C5.91115 4.71921 5.78003 4.75969 5.64966 4.80294C4.05877 6.1087 2.77637 8.41756 2.77637 10.5304C2.77637 14.415 5.73244 18.9587 9.19396 19.627C12.3284 19.1617 14.8054 16.8192 15.5098 13.8195C15.8581 12.3391 16.5909 10.9771 17.6661 9.90191L19.2477 8.32028C19.7075 7.86098 19.7075 7.11566 19.2477 6.65633Z" fill="#E06E7E"/>
<path d="M5.65021 4.80298C4.53264 5.17355 3.48328 5.80818 2.60087 6.70849C-0.343093 9.71286 -0.317971 14.4962 2.65658 17.4703C4.43817 19.2519 6.87998 19.9706 9.19454 19.627C3.91296 16.5597 2.41947 9.76568 5.65021 4.80298Z" fill="#D7495D"/>
<path d="M13.1202 12.2084C13.1202 9.82264 11.4975 7.81629 9.29565 7.23206C5.79722 7.54035 4.68652 9.82264 4.68652 12.2084C4.68652 14.5942 6.42607 17.1208 9.29565 17.1848C11.4975 16.6006 13.1202 14.5942 13.1202 12.2084Z" fill="#F6E66A"/>
<path d="M5.47103 12.2084C5.47103 9.82266 7.09376 7.81631 9.29564 7.23207C8.87315 7.11999 8.42949 7.05994 7.97175 7.05994C5.1282 7.05994 2.82324 9.36489 2.82324 12.2084C2.82324 15.052 5.1282 17.357 7.97175 17.357C8.42952 17.357 8.87319 17.2969 9.29564 17.1848C7.09376 16.6006 5.47103 14.5942 5.47103 12.2084Z" fill="#F1CD62"/>
<path d="M10.1778 13.8266C10.1778 13.4703 9.9668 13.1637 9.66296 13.0242C9.06146 12.9753 8.75586 13.4703 8.75586 13.8266C8.75586 14.1829 9.11545 14.6667 9.66296 14.629C9.9668 14.4895 10.1778 14.1829 10.1778 13.8266Z" fill="#616A82"/>
<path d="M9.1486 13.8265C9.1486 13.4702 9.35961 13.1636 9.66345 13.0242C9.08367 12.7581 8.41309 13.1799 8.41309 13.8265C8.41309 14.4719 9.08269 14.8954 9.66345 14.6289C9.35961 14.4894 9.1486 14.1828 9.1486 13.8265Z" fill="#565E75"/>
<path d="M6.2903 15.2526C6.59057 15.1281 6.7331 14.7838 6.60864 14.4836C6.48419 14.1833 6.13987 14.0408 5.8396 14.1653C5.53932 14.2897 5.39679 14.634 5.52125 14.9343C5.6457 15.2345 5.99002 15.3771 6.2903 15.2526Z" fill="#616A82"/>
<path d="M6.94189 11.1787C6.94189 10.6849 6.63762 10.2624 6.20638 10.0878C5.67027 10.0878 5.19629 10.6849 5.19629 11.1787C5.19629 11.6726 5.61472 12.3882 6.20638 12.2697C6.63758 12.0951 6.94189 11.6726 6.94189 11.1787Z" fill="#616A82"/>
<path d="M5.47144 11.1788C5.47144 10.6849 5.7757 10.2624 6.20695 10.0878C5.43764 9.77636 4.58887 10.3417 4.58887 11.1788C4.58887 12.0153 5.43729 12.5814 6.20695 12.2697C5.7757 12.0951 5.47144 11.6727 5.47144 11.1788Z" fill="#565E75"/>
<path d="M8.03422 8.26723L7.7012 8.59986C7.58668 8.71421 7.58657 8.89975 7.70092 9.01426C7.8152 9.12866 8.00074 9.12897 8.11529 9.0145L8.44831 8.68187C8.56282 8.56751 8.56294 8.38197 8.44859 8.26746C8.33419 8.15299 8.14865 8.15283 8.03422 8.26723Z" fill="black"/>
<path d="M11.5804 12.4786L11.913 12.1456C12.0274 12.0311 12.0273 11.8456 11.9128 11.7312C11.7983 11.6169 11.6128 11.6169 11.4984 11.7315L11.1658 12.0645C11.0514 12.179 11.0515 12.3645 11.166 12.4789C11.2232 12.536 11.2982 12.5646 11.3731 12.5646C11.4482 12.5646 11.5232 12.5359 11.5804 12.4786Z" fill="black"/>
<path d="M9.21472 9.78027C9.05384 9.76894 8.91334 9.89095 8.90221 10.0524C8.85419 10.7475 9.43116 11.3271 10.1284 11.2785C10.2898 11.2674 10.4116 11.1274 10.4005 10.966C10.3893 10.8045 10.2493 10.6823 10.088 10.6939C9.74696 10.7174 9.46324 10.4348 9.48688 10.0928C9.49801 9.93131 9.37619 9.79141 9.21472 9.78027Z" fill="black"/>
<path d="M17.3767 6.44909L15.8206 8.00482C15.5304 8.29479 15.043 8.24244 14.8218 7.88507L14.8028 7.85425C14.646 7.60343 14.6844 7.28036 14.8962 7.06861L19.4549 2.50945C20.0291 1.93577 20.03 1.00546 19.4552 0.43118C18.8817 -0.143408 17.9505 -0.143915 17.3767 0.430985L12.7569 5.05031C12.5614 5.24585 12.2459 5.30195 11.9715 5.14438C11.9692 5.14298 11.9668 5.14157 11.9644 5.14024C11.5902 4.9295 11.5197 4.42692 11.8196 4.12703L13.4367 2.50942C14.011 1.93569 14.0118 1.00538 13.437 0.431141C12.8635 -0.143368 11.9323 -0.143994 11.3585 0.430946L9.41161 2.37736C8.43751 3.35147 7.2461 4.05108 5.9662 4.40051C4.61433 4.76921 3.37811 5.49636 2.39111 6.5034C-0.666467 9.62368 -0.641892 14.5871 2.44886 17.6775C5.86118 21.0898 11.5105 20.6853 14.4113 16.8375C14.5087 16.7083 14.483 16.5246 14.3537 16.4271C14.2245 16.3297 14.0407 16.3555 13.9434 16.4847C11.2526 20.0533 6.01953 20.4194 2.86326 17.2632C0.023765 14.424 -0.000262029 9.78125 2.80966 6.91362C3.72391 5.98081 4.86875 5.3073 6.12048 4.96596C7.4986 4.58968 8.77995 3.83788 9.82598 2.79185L11.7731 0.845233C12.1149 0.502793 12.6747 0.497128 13.0226 0.845507C13.3679 1.19049 13.3682 1.7496 13.0224 2.09505L11.4051 3.71274C10.8302 4.28764 10.9651 5.24952 11.6761 5.65048C12.1478 5.93245 12.7726 5.86337 13.1713 5.46475L17.7912 0.845233C18.1331 0.502793 18.6929 0.497128 19.0407 0.845507C19.386 1.19049 19.3863 1.74964 19.0406 2.09501L14.4817 6.65428C14.0758 7.06017 14.0035 7.68141 14.3065 8.16594C14.3164 8.17606 14.5783 8.69439 15.2276 8.76983C15.6016 8.8132 15.9687 8.68548 16.2349 8.41926L17.7911 6.86342C18.1362 6.51809 18.6951 6.51774 19.0407 6.86362C19.386 7.20859 19.3863 7.76775 19.0406 8.11312L17.459 9.69475C16.3643 10.7895 15.5917 12.1925 15.2246 13.7526C15.0942 14.3094 14.8974 14.8517 14.6397 15.3645C14.567 15.5091 14.6254 15.6852 14.7699 15.7579C14.9146 15.8306 15.0907 15.7722 15.1633 15.6276C15.4416 15.0738 15.6542 14.488 15.7951 13.8866C16.1372 12.4329 16.8558 11.1267 17.8734 10.1091L19.4549 8.5276C20.0293 7.95376 20.0299 7.02349 19.4551 6.44925C18.8811 5.87466 17.9509 5.87435 17.3767 6.44909Z" fill="black"/>
<path d="M4.64828 7.89934C3.30228 8.93877 2.53027 10.5094 2.53027 12.2085C2.53027 15.2089 4.9713 17.65 7.97176 17.65C10.9723 17.65 13.4133 15.209 13.4133 12.2085C13.4133 9.208 10.9723 6.76697 7.97176 6.76697C7.25473 6.76697 6.55825 6.90414 5.90161 7.17465C5.75198 7.2363 5.68064 7.40758 5.74229 7.55722C5.8039 7.70681 5.9751 7.77823 6.12482 7.71654C6.7103 7.47533 7.33173 7.35304 7.97176 7.35304C10.6491 7.35304 12.8273 9.53118 12.8273 12.2085C12.8273 14.8858 10.6491 17.064 7.97176 17.064C5.29448 17.064 3.11631 14.8859 3.11631 12.2085C3.11631 10.6923 3.80525 9.29079 5.00647 8.36321C5.13453 8.26429 5.15821 8.08027 5.05929 7.9522C4.96029 7.82402 4.77631 7.80046 4.64828 7.89934Z" fill="black"/>
<path d="M5.76571 9.70898C4.95527 9.70898 4.2959 10.3684 4.2959 11.1788C4.2959 11.9892 4.95527 12.6486 5.76571 12.6486C6.57616 12.6486 7.23553 11.9892 7.23553 11.1788C7.23553 10.3684 6.57616 9.70898 5.76571 9.70898ZM5.76571 12.0626C5.27837 12.0626 4.88193 11.6661 4.88193 11.1788C4.88193 10.6915 5.27837 10.295 5.76571 10.295C6.25306 10.295 6.64949 10.6915 6.64949 11.1788C6.64949 11.6661 6.25302 12.0626 5.76571 12.0626Z" fill="black"/>
<path d="M8.12012 13.8266C8.12012 14.4749 8.64751 15.0023 9.29574 15.0023C9.94397 15.0023 10.4714 14.4749 10.4714 13.8266C10.4714 13.1784 9.94397 12.651 9.29574 12.651C8.64751 12.651 8.12012 13.1784 8.12012 13.8266ZM9.29574 13.237C9.62083 13.237 9.88533 13.5015 9.88533 13.8266C9.88533 14.1517 9.62083 14.4162 9.29574 14.4162C8.97065 14.4162 8.70615 14.1517 8.70615 13.8266C8.70615 13.5015 8.97065 13.237 9.29574 13.237Z" fill="black"/>
<path d="M6.05917 13.8278C5.57319 13.8278 5.17773 14.2232 5.17773 14.7092C5.17773 15.1952 5.57315 15.5906 6.05917 15.5906C6.54515 15.5906 6.94061 15.1952 6.94061 14.7092C6.94057 14.2231 6.54515 13.8278 6.05917 13.8278ZM6.05917 15.0046C5.89629 15.0046 5.76377 14.872 5.76377 14.7092C5.76377 14.5463 5.89629 14.4138 6.05917 14.4138C6.22205 14.4138 6.35457 14.5463 6.35457 14.7092C6.35453 14.872 6.22205 15.0046 6.05917 15.0046Z" fill="black"/>
</g>
<defs>
<clipPath id="clip0_1_572">
<rect width="20" height="20" fill="white"/>
</clipPath>
</defs>
</svg>
