<svg width="24" height="24" viewBox="0 0 24 24" fill="none" xmlns="http://www.w3.org/2000/svg">
<path d="M20.1569 7.445L16.5549 3.843C16.2878 3.5758 15.9706 3.36384 15.6215 3.21923C15.2724 3.07462 14.8983 3.00019 14.5204 3.00019C14.1426 3.00019 13.7684 3.07462 13.4194 3.21923C13.0703 3.36384 12.7531 3.5758 12.4859 3.843L9.84295 6.486C9.57575 6.75316 9.36379 7.07034 9.21918 7.41942C9.07457 7.7685 9.00014 8.14265 9.00014 8.5205C9.00014 8.89835 9.07457 9.2725 9.21918 9.62158C9.36379 9.97066 9.57575 10.2878 9.84295 10.555V10.555C10.0092 10.7212 10.0092 10.9908 9.84295 11.157L3.58595 17.414C3.25372 17.7463 3.04909 18.1849 3.00795 18.653L2.99995 18.828L2.99995 20C2.99998 20.2449 3.08991 20.4813 3.25266 20.6644C3.41542 20.8474 3.6397 20.9643 3.88295 20.993L3.99995 21L5.17195 21C5.6415 20.9999 6.09604 20.8346 6.45595 20.533L6.58595 20.414V20.414C6.85103 20.1489 6.99995 19.7894 6.99995 19.4145L6.99995 19C6.99995 18.4477 7.44766 18 7.99995 18V18C8.55223 18 8.99995 17.5523 8.99995 17V17C8.99995 16.4477 9.44766 16 9.99995 16L10.4142 16C10.7892 16 11.1489 15.851 11.4142 15.5858L12.8429 14.157C13.0092 13.9908 13.2787 13.9908 13.4449 14.157V14.157C13.7121 14.4242 14.0293 14.6362 14.3784 14.7808C14.7274 14.9254 15.1016 14.9998 15.4794 14.9998C15.8573 14.9998 16.2314 14.9254 16.5805 14.7808C16.9296 14.6362 17.2468 14.4242 17.5139 14.157L20.1569 11.514C20.4241 11.2468 20.6361 10.9297 20.7807 10.5806C20.9253 10.2315 20.9998 9.85735 20.9998 9.4795C20.9998 9.10165 20.9253 8.7275 20.7807 8.37842C20.6361 8.02934 20.4241 7.71216 20.1569 7.445Z" stroke="#FEAE0D" stroke-linecap="round" stroke-linejoin="round"/>
<path d="M15 9L15 8.99" stroke="#FEAE0D" stroke-width="2" stroke-linecap="round" stroke-linejoin="round"/>
</svg>
