<svg width="24" height="24" viewBox="0 0 24 24" fill="none" xmlns="http://www.w3.org/2000/svg">
<g clip-path="url(#clip0_56_132)">
<path d="M8 7C8 8.06087 8.42143 9.07828 9.17157 9.82843C9.92172 10.5786 10.9391 11 12 11C13.0609 11 14.0783 10.5786 14.8284 9.82843C15.5786 9.07828 16 8.06087 16 7C16 5.93913 15.5786 4.92172 14.8284 4.17157C14.0783 3.42143 13.0609 3 12 3C10.9391 3 9.92172 3.42143 9.17157 4.17157C8.42143 4.92172 8 5.93913 8 7Z" stroke="#01633A" stroke-width="1.5" stroke-linecap="round" stroke-linejoin="round"/>
<path d="M6 19V17C6 15.9391 6.45655 14.9217 7.2692 14.1716C8.08186 13.4214 9.18406 13 10.3333 13H14.6667C15.8159 13 16.9181 13.4214 17.7308 14.1716C18.5435 14.9217 19 15.9391 19 17V19" stroke="#01633A" stroke-width="1.5" stroke-linecap="round" stroke-linejoin="round"/>
</g>
<defs>
<clipPath id="clip0_56_132">
<rect width="24" height="24" fill="white"/>
</clipPath>
</defs>
</svg>
