<svg width="20" height="20" viewBox="0 0 20 20" fill="none" xmlns="http://www.w3.org/2000/svg">
<g clip-path="url(#clip0_1_596)">
<path d="M16.8531 0.429688H3.14687C2.79007 0.429636 2.43674 0.49987 2.10708 0.636379C1.77742 0.772888 1.47788 0.972998 1.22556 1.22528C0.973238 1.47756 0.773085 1.77708 0.636529 2.10672C0.499972 2.43636 0.429687 2.78968 0.429688 3.14648V16.8531C0.429688 17.5738 0.715962 18.2649 1.22553 18.7745C1.7351 19.284 2.42623 19.5703 3.14687 19.5703H16.8531C17.5738 19.5703 18.2649 19.284 18.7745 18.7745C19.284 18.2649 19.5703 17.5738 19.5703 16.8531V3.14648C19.5703 2.78968 19.5 2.43636 19.3635 2.10672C19.2269 1.77708 19.0268 1.47756 18.7744 1.22528C18.5221 0.972998 18.2226 0.772888 17.8929 0.636379C17.5633 0.49987 17.2099 0.429636 16.8531 0.429688ZM11.9566 14.2887C11.828 14.2886 11.7012 14.2573 11.5873 14.1975C11.4733 14.1377 11.3756 14.0511 11.3023 13.9453L9.05391 10.7031C9.04342 10.6879 9.02832 10.6763 9.01083 10.6703C8.99333 10.6642 8.97435 10.6639 8.95666 10.6694C8.93898 10.6749 8.92352 10.6859 8.91255 10.7009C8.90158 10.7158 8.89568 10.7338 8.8957 10.7523V13.4609C8.8957 13.6797 8.80878 13.8896 8.65407 14.0443C8.49935 14.199 8.28951 14.2859 8.0707 14.2859C7.85193 14.2858 7.64215 14.1989 7.48745 14.0442C7.33276 13.8895 7.24581 13.6797 7.2457 13.4609V6.53633C7.24581 6.31756 7.33276 6.10777 7.48745 5.95308C7.64215 5.79838 7.85193 5.71143 8.0707 5.71133C8.28951 5.71133 8.49935 5.79825 8.65407 5.95296C8.80878 6.10768 8.8957 6.31752 8.8957 6.53633V8.41758C8.89525 8.43598 8.90067 8.45405 8.91117 8.46917C8.92167 8.48429 8.93671 8.49567 8.95411 8.50167C8.97151 8.50768 8.99038 8.50799 9.00797 8.50256C9.02555 8.49713 9.04096 8.48625 9.05195 8.47148L10.9934 6.00586C11.1207 5.84729 11.3055 5.74533 11.5076 5.72212C11.7096 5.69891 11.9127 5.75632 12.0727 5.88188C12.2327 6.00744 12.3368 6.19104 12.3623 6.39283C12.3878 6.59462 12.3327 6.79833 12.209 6.95977L10.3945 9.27695C10.3352 9.35303 10.3016 9.44609 10.2988 9.54256C10.296 9.63903 10.3241 9.73387 10.3789 9.81328L12.6113 13.0395C12.694 13.1589 12.7425 13.2987 12.7514 13.4437C12.7603 13.5887 12.7293 13.7334 12.6619 13.8621C12.5945 13.9908 12.4931 14.0986 12.3688 14.1738C12.2445 14.249 12.1019 14.2887 11.9566 14.2887Z" fill="#8BD4ED"/>
<path d="M16.8531 19.8047H3.14648C2.364 19.8038 1.61384 19.4925 1.06058 18.9391C0.507319 18.3858 0.19614 17.6356 0.195312 16.8531V9.33125C0.195313 9.26909 0.220006 9.20948 0.263959 9.16552C0.307913 9.12157 0.367527 9.09688 0.429688 9.09688C0.491848 9.09688 0.551462 9.12157 0.595416 9.16552C0.639369 9.20948 0.664062 9.26909 0.664062 9.33125V16.8531C0.664786 17.5113 0.926546 18.1424 1.39192 18.6078C1.8573 19.0733 2.48829 19.3351 3.14648 19.3359H16.8531C17.5114 19.3352 18.1425 19.0734 18.6079 18.6079C19.0734 18.1425 19.3352 17.5114 19.3359 16.8531V3.14648C19.3351 2.48829 19.0733 1.8573 18.6078 1.39192C18.1424 0.926546 17.5113 0.664786 16.8531 0.664062H3.14648C2.48833 0.664786 1.85733 0.926559 1.39195 1.39195C0.926559 1.85733 0.664786 2.48833 0.664062 3.14648V7.50313C0.664062 7.56529 0.639369 7.6249 0.595416 7.66885C0.551462 7.71281 0.491848 7.7375 0.429688 7.7375C0.367527 7.7375 0.307913 7.71281 0.263959 7.66885C0.220006 7.6249 0.195313 7.56529 0.195312 7.50313V3.14648C0.19614 2.36404 0.507332 1.61388 1.0606 1.0606C1.61388 0.507332 2.36404 0.19614 3.14648 0.195312H16.8531C17.6356 0.19614 18.3858 0.507319 18.9391 1.06058C19.4925 1.61384 19.8038 2.364 19.8047 3.14648V16.8531C19.8038 17.6356 19.4925 18.3858 18.9392 18.9392C18.3858 19.4925 17.6356 19.8038 16.8531 19.8047Z" fill="#1C71A0"/>
<path d="M0.429688 8.82812C0.367527 8.82812 0.307913 8.80343 0.263959 8.75948C0.220006 8.71552 0.195313 8.65591 0.195312 8.59375V8.24219C0.195313 8.18003 0.220006 8.12041 0.263959 8.07646C0.307913 8.03251 0.367527 8.00781 0.429688 8.00781C0.491848 8.00781 0.551462 8.03251 0.595416 8.07646C0.639369 8.12041 0.664062 8.18003 0.664062 8.24219V8.59375C0.664062 8.65591 0.639369 8.71552 0.595416 8.75948C0.551462 8.80343 0.491848 8.82812 0.429688 8.82812Z" fill="#1C71A0"/>
<path d="M11.957 14.523C11.7907 14.523 11.6268 14.4827 11.4794 14.4056C11.3319 14.3284 11.2054 14.2167 11.1105 14.0801L9.13047 11.2265V13.4636C9.13047 13.6028 9.10307 13.7405 9.04983 13.8691C8.99659 13.9976 8.91856 14.1144 8.82019 14.2127C8.72181 14.3111 8.60503 14.3891 8.4765 14.4424C8.34797 14.4956 8.21021 14.523 8.07109 14.523C7.93197 14.523 7.79422 14.4956 7.66569 14.4424C7.53716 14.3891 7.42037 14.3111 7.322 14.2127C7.22363 14.1144 7.1456 13.9976 7.09236 13.8691C7.03912 13.7405 7.01172 13.6028 7.01172 13.4636V6.5363C7.01172 6.39718 7.03912 6.25943 7.09236 6.1309C7.1456 6.00237 7.22363 5.88558 7.322 5.78721C7.42037 5.68884 7.53716 5.61081 7.66569 5.55757C7.79422 5.50433 7.93197 5.47693 8.07109 5.47693C8.21021 5.47693 8.34797 5.50433 8.4765 5.55757C8.60503 5.61081 8.72181 5.68884 8.82019 5.78721C8.91856 5.88558 8.99659 6.00237 9.04983 6.1309C9.10307 6.25943 9.13047 6.39718 9.13047 6.5363V7.99177L10.8102 5.86091C10.977 5.65663 11.2172 5.52593 11.4794 5.49691C11.7415 5.46788 12.0045 5.54284 12.212 5.70568C12.4194 5.86852 12.5547 6.10624 12.5888 6.36776C12.6229 6.62928 12.553 6.89373 12.3941 7.10427L10.5812 9.42146C10.5524 9.45798 10.5361 9.50282 10.5348 9.54933C10.5335 9.59584 10.5471 9.64155 10.5738 9.67966L12.8062 12.9058C12.9132 13.0605 12.9758 13.2415 12.9873 13.4292C12.9988 13.6169 12.9587 13.8042 12.8714 13.9707C12.7841 14.1373 12.6529 14.2768 12.492 14.3742C12.3311 14.4715 12.1466 14.523 11.9586 14.523H11.957ZM8.98477 10.434C9.03652 10.4339 9.0875 10.4465 9.1333 10.4706C9.17911 10.4947 9.21835 10.5296 9.24766 10.5722L11.4961 13.8144C11.5479 13.8889 11.6169 13.9498 11.6973 13.9918C11.7777 14.0338 11.8671 14.0558 11.9578 14.0558C12.0603 14.0558 12.1609 14.0277 12.2485 13.9746C12.3362 13.9215 12.4077 13.8455 12.4553 13.7547C12.5029 13.6639 12.5248 13.5618 12.5185 13.4595C12.5123 13.3572 12.4782 13.2585 12.4199 13.1742L10.1875 9.94802C10.1036 9.82781 10.0606 9.68378 10.0649 9.53725C10.0692 9.39071 10.1205 9.24945 10.2113 9.13435L12.0242 6.81716C12.0865 6.73775 12.1252 6.6424 12.1359 6.54202C12.1466 6.44164 12.1288 6.34029 12.0846 6.24954C12.0404 6.1588 11.9715 6.08232 11.8859 6.02886C11.8003 5.9754 11.7013 5.94712 11.6004 5.94724C11.519 5.94705 11.4386 5.96543 11.3654 6.00096C11.2921 6.0365 11.228 6.08826 11.1777 6.15232L9.23633 8.61794C9.19496 8.67035 9.1383 8.70858 9.07422 8.72732C9.01014 8.74606 8.94182 8.74438 8.87873 8.72253C8.81564 8.70067 8.76093 8.65971 8.72218 8.60534C8.68343 8.55097 8.66257 8.48588 8.6625 8.41912V6.5363C8.6625 6.37966 8.60027 6.22943 8.48951 6.11867C8.37875 6.00791 8.22852 5.94568 8.07187 5.94568C7.91523 5.94568 7.765 6.00791 7.65424 6.11867C7.54348 6.22943 7.48125 6.37966 7.48125 6.5363V13.4636C7.48125 13.6203 7.54348 13.7705 7.65424 13.8813C7.765 13.992 7.91523 14.0543 8.07187 14.0543C8.22852 14.0543 8.37875 13.992 8.48951 13.8813C8.60027 13.7705 8.6625 13.6203 8.6625 13.4636V10.7551C8.66271 10.6698 8.69676 10.588 8.75719 10.5278C8.81761 10.4676 8.89947 10.4339 8.98477 10.434Z" fill="#1C71A0"/>
<path d="M8.84219 18.0859C8.34531 18.0859 7.94141 17.6387 7.94141 17.0887C7.94141 16.5387 8.34531 16.0918 8.84219 16.0918C9.33906 16.0918 9.74297 16.5391 9.74297 17.0887C9.74297 17.6383 9.33906 18.0859 8.84219 18.0859ZM8.84219 16.5605C8.60391 16.5605 8.41016 16.7977 8.41016 17.0887C8.41016 17.3797 8.60547 17.6172 8.84219 17.6172C9.07891 17.6172 9.27422 17.3801 9.27422 17.0887C9.27422 16.7973 9.08047 16.5602 8.84219 16.5602V16.5605Z" fill="#1C71A0"/>
<path d="M9.50879 18.0781C9.44663 18.0781 9.38701 18.0534 9.34306 18.0095C9.29911 17.9655 9.27441 17.9059 9.27441 17.8437V16.4062C9.27441 16.3441 9.29911 16.2845 9.34306 16.2405C9.38701 16.1966 9.44663 16.1719 9.50879 16.1719C9.57095 16.1719 9.63056 16.1966 9.67452 16.2405C9.71847 16.2845 9.74316 16.3441 9.74316 16.4062V17.8437C9.74316 17.9059 9.71847 17.9655 9.67452 18.0095C9.63056 18.0534 9.57095 18.0781 9.50879 18.0781Z" fill="#1C71A0"/>
<path d="M5.27539 18.0859C5.07452 18.0859 4.87816 18.0264 4.71114 17.9148C4.54412 17.8032 4.41395 17.6446 4.33708 17.459C4.26021 17.2734 4.24009 17.0692 4.27928 16.8722C4.31847 16.6752 4.4152 16.4942 4.55724 16.3522C4.69927 16.2101 4.88024 16.1134 5.07725 16.0742C5.27426 16.035 5.47847 16.0551 5.66405 16.132C5.84963 16.2089 6.00825 16.339 6.11985 16.5061C6.23145 16.6731 6.29102 16.8694 6.29102 17.0703C6.29102 17.3397 6.18401 17.598 5.99355 17.7885C5.80308 17.9789 5.54475 18.0859 5.27539 18.0859ZM5.27539 16.5234C5.16723 16.5234 5.0615 16.5555 4.97156 16.6156C4.88163 16.6757 4.81154 16.7611 4.77014 16.861C4.72875 16.961 4.71792 17.0709 4.73902 17.177C4.76013 17.2831 4.81221 17.3805 4.88869 17.457C4.96517 17.5335 5.06262 17.5856 5.1687 17.6067C5.27478 17.6278 5.38474 17.617 5.48467 17.5756C5.5846 17.5342 5.67001 17.4641 5.7301 17.3741C5.79019 17.2842 5.82227 17.1785 5.82227 17.0703C5.82227 16.9253 5.76465 16.7862 5.66209 16.6836C5.55953 16.5811 5.42043 16.5234 5.27539 16.5234Z" fill="#1C71A0"/>
<path d="M7.38906 18.0859H7.15078C6.86602 18.0859 6.63477 17.8234 6.63477 17.5V15.8867C6.63477 15.8246 6.65946 15.7649 6.70341 15.721C6.74737 15.677 6.80698 15.6523 6.86914 15.6523C6.9313 15.6523 6.99091 15.677 7.03487 15.721C7.07882 15.7649 7.10352 15.8246 7.10352 15.8867V17.5C7.10352 17.5711 7.13867 17.6125 7.15195 17.6172H7.38906C7.40595 17.603 7.41909 17.5849 7.42733 17.5645C7.43557 17.5441 7.43866 17.5219 7.43633 17.5C7.43633 17.4378 7.46102 17.3782 7.50497 17.3343C7.54893 17.2903 7.60854 17.2656 7.6707 17.2656C7.73286 17.2656 7.79248 17.2903 7.83643 17.3343C7.88038 17.3782 7.90508 17.4378 7.90508 17.5C7.90508 17.823 7.67383 18.0859 7.38906 18.0859Z" fill="#1C71A0"/>
<path d="M7.30801 16.6605H6.43066C6.3685 16.6605 6.30889 16.6358 6.26494 16.5919C6.22098 16.5479 6.19629 16.4883 6.19629 16.4261C6.19629 16.364 6.22098 16.3044 6.26494 16.2604C6.30889 16.2165 6.3685 16.1918 6.43066 16.1918H7.30801C7.37017 16.1918 7.42978 16.2165 7.47374 16.2604C7.51769 16.3044 7.54238 16.364 7.54238 16.4261C7.54238 16.4883 7.51769 16.5479 7.47374 16.5919C7.42978 16.6358 7.37017 16.6605 7.30801 16.6605Z" fill="#1C71A0"/>
<path d="M3.57422 16.9531H2.87109C2.80893 16.9531 2.74932 16.9284 2.70537 16.8845C2.66141 16.8405 2.63672 16.7809 2.63672 16.7188V15.3125C2.63672 15.2503 2.66141 15.1907 2.70537 15.1468C2.74932 15.1028 2.80893 15.0781 2.87109 15.0781H3.57422C3.82286 15.0781 4.06132 15.1769 4.23713 15.3527C4.41295 15.5285 4.51172 15.767 4.51172 16.0156C4.51172 16.2643 4.41295 16.5027 4.23713 16.6785C4.06132 16.8544 3.82286 16.9531 3.57422 16.9531ZM3.10547 16.4844H3.57422C3.69854 16.4844 3.81777 16.435 3.90568 16.3471C3.99358 16.2592 4.04297 16.1399 4.04297 16.0156C4.04297 15.8913 3.99358 15.7721 3.90568 15.6842C3.81777 15.5963 3.69854 15.5469 3.57422 15.5469H3.10547V16.4844Z" fill="#1C71A0"/>
<path d="M2.87207 18.0859C2.80991 18.0859 2.7503 18.0612 2.70634 18.0173C2.66239 17.9733 2.6377 17.9137 2.6377 17.8516V15.3125C2.6377 15.2503 2.66239 15.1907 2.70634 15.1468C2.7503 15.1028 2.80991 15.0781 2.87207 15.0781C2.93423 15.0781 2.99384 15.1028 3.0378 15.1468C3.08175 15.1907 3.10645 15.2503 3.10645 15.3125V17.8516C3.10645 17.9137 3.08175 17.9733 3.0378 18.0173C2.99384 18.0612 2.93423 18.0859 2.87207 18.0859Z" fill="#1C71A0"/>
<path d="M10.5055 18.0859C10.4894 18.0859 10.4734 18.0859 10.4574 18.0859C10.3474 18.0803 10.2402 18.0491 10.1444 17.9949C10.0485 17.9407 9.96656 17.8648 9.90507 17.7734C9.87216 17.7213 9.8611 17.6584 9.87428 17.5982C9.88746 17.538 9.92382 17.4854 9.97549 17.4518C10.0272 17.4182 10.09 17.4063 10.1503 17.4187C10.2107 17.4311 10.2638 17.4667 10.298 17.518C10.32 17.5475 10.3484 17.5717 10.3811 17.5886C10.4138 17.6056 10.4499 17.615 10.4867 17.616C10.6039 17.6238 10.7105 17.5582 10.716 17.4734C10.7207 17.3973 10.6434 17.3258 10.5402 17.307C10.5285 17.3078 10.5168 17.3078 10.5051 17.307C10.492 17.3059 10.4789 17.3041 10.466 17.3016C10.1047 17.2602 9.8375 16.9687 9.85859 16.6375C9.86499 16.551 9.88998 16.467 9.93184 16.3911C9.97371 16.3152 10.0315 16.2492 10.1012 16.1977C10.2376 16.0982 10.4039 16.0483 10.5726 16.0561C10.7413 16.0639 10.9022 16.129 11.0289 16.2406C11.0529 16.2609 11.0727 16.2859 11.0869 16.314C11.101 16.3421 11.1094 16.3728 11.1115 16.4042C11.1136 16.4356 11.1093 16.4671 11.099 16.4968C11.0886 16.5265 11.0724 16.5539 11.0512 16.5772C11.03 16.6005 11.0044 16.6193 10.9758 16.6325C10.9472 16.6457 10.9163 16.653 10.8848 16.6539C10.8534 16.6549 10.822 16.6495 10.7927 16.6381C10.7633 16.6267 10.7366 16.6095 10.7141 16.5875C10.6683 16.5492 10.6113 16.5269 10.5517 16.524C10.4921 16.5211 10.4332 16.5378 10.384 16.5715C10.3681 16.5823 10.3548 16.5964 10.3448 16.6129C10.3349 16.6293 10.3287 16.6477 10.3266 16.6668C10.3215 16.7477 10.409 16.823 10.5219 16.8363C10.525 16.8359 10.5281 16.8359 10.5312 16.8363H10.5613H10.5727C10.9363 16.8754 11.2047 17.1684 11.1836 17.5004C11.1625 17.8324 10.8633 18.0859 10.5055 18.0859Z" fill="#1C71A0"/>
<path d="M11.9117 18.0859C11.8957 18.0859 11.8797 18.0859 11.8637 18.0859C11.7537 18.0803 11.6465 18.0491 11.5506 17.9949C11.4547 17.9407 11.3728 17.8648 11.3113 17.7734C11.2784 17.7213 11.2674 17.6584 11.2805 17.5982C11.2937 17.538 11.3301 17.4854 11.3817 17.4518C11.4334 17.4182 11.4962 17.4063 11.5566 17.4187C11.617 17.4311 11.67 17.4667 11.7043 17.518C11.7263 17.5475 11.7547 17.5717 11.7874 17.5886C11.8201 17.6056 11.8562 17.615 11.893 17.616C12.0102 17.6238 12.1168 17.5582 12.1223 17.4734C12.1269 17.3973 12.0496 17.3258 11.9465 17.307C11.9348 17.3078 11.923 17.3078 11.9113 17.307C11.8982 17.3059 11.8852 17.3041 11.8723 17.3016C11.5109 17.2602 11.2437 16.9687 11.2648 16.6375C11.2712 16.551 11.2962 16.467 11.3381 16.3911C11.38 16.3152 11.4377 16.2492 11.5074 16.1977C11.6439 16.0982 11.8102 16.0483 11.9788 16.0561C12.1475 16.0639 12.3085 16.129 12.4352 16.2406C12.4592 16.2609 12.4789 16.2859 12.4931 16.314C12.5073 16.3421 12.5157 16.3728 12.5178 16.4042C12.5198 16.4356 12.5156 16.4671 12.5052 16.4968C12.4948 16.5265 12.4786 16.5539 12.4574 16.5772C12.4363 16.6005 12.4107 16.6193 12.3821 16.6325C12.3535 16.6457 12.3225 16.653 12.2911 16.6539C12.2596 16.6549 12.2283 16.6495 12.1989 16.6381C12.1696 16.6267 12.1429 16.6095 12.1203 16.5875C12.0746 16.5492 12.0176 16.5269 11.958 16.524C11.8984 16.5211 11.8395 16.5378 11.7902 16.5715C11.7744 16.5823 11.761 16.5964 11.7511 16.6129C11.7412 16.6293 11.7349 16.6477 11.7328 16.6668C11.7277 16.7477 11.8152 16.823 11.9281 16.8363C11.9312 16.8359 11.9344 16.8359 11.9375 16.8363H11.9676H11.9789C12.3426 16.8754 12.6109 17.1684 12.5898 17.5004C12.5687 17.8324 12.2695 18.0859 11.9117 18.0859Z" fill="#1C71A0"/>
<path d="M12.9043 15.9824C12.8421 15.9824 12.7825 15.9577 12.7386 15.9138C12.6946 15.8698 12.6699 15.8102 12.6699 15.748V15.7422C12.6699 15.68 12.6946 15.6204 12.7386 15.5765C12.7825 15.5325 12.8421 15.5078 12.9043 15.5078C12.9665 15.5078 13.0261 15.5325 13.07 15.5765C13.114 15.6204 13.1387 15.68 13.1387 15.7422V15.7484C13.1386 15.8105 13.1138 15.87 13.0699 15.9139C13.0259 15.9578 12.9664 15.9824 12.9043 15.9824Z" fill="#1C71A0"/>
<path d="M12.9043 18.0859C12.8421 18.0859 12.7825 18.0612 12.7386 18.0173C12.6946 17.9733 12.6699 17.9137 12.6699 17.8516V16.5C12.6699 16.4378 12.6946 16.3782 12.7386 16.3343C12.7825 16.2903 12.8421 16.2656 12.9043 16.2656C12.9665 16.2656 13.0261 16.2903 13.07 16.3343C13.114 16.3782 13.1387 16.4378 13.1387 16.5V17.8516C13.1387 17.9137 13.114 17.9733 13.07 18.0173C13.0261 18.0612 12.9665 18.0859 12.9043 18.0859Z" fill="#1C71A0"/>
<path d="M15.3203 18.0859C15.2582 18.0859 15.1985 18.0612 15.1546 18.0173C15.1106 17.9733 15.0859 17.9137 15.0859 17.8516V16.2891C15.0859 16.2269 15.1106 16.1673 15.1546 16.1233C15.1985 16.0794 15.2582 16.0547 15.3203 16.0547C15.3825 16.0547 15.4421 16.0794 15.486 16.1233C15.53 16.1673 15.5547 16.2269 15.5547 16.2891V17.8516C15.5547 17.9137 15.53 17.9733 15.486 18.0173C15.4421 18.0612 15.3825 18.0859 15.3203 18.0859Z" fill="#1C71A0"/>
<path d="M16.2242 18.086C16.1621 18.086 16.1024 18.0613 16.0585 18.0173C16.0145 17.9734 15.9898 17.9137 15.9898 17.8516V16.7406C15.9898 16.6829 15.9669 16.6276 15.9261 16.5868C15.8853 16.546 15.83 16.5231 15.7723 16.5231C15.7146 16.5231 15.6592 16.546 15.6184 16.5868C15.5776 16.6276 15.5547 16.6829 15.5547 16.7406V17.8516C15.5547 17.9137 15.53 17.9734 15.486 18.0173C15.4421 18.0613 15.3825 18.086 15.3203 18.086C15.2582 18.086 15.1985 18.0613 15.1546 18.0173C15.1106 17.9734 15.0859 17.9137 15.0859 17.8516V16.7406C15.0859 16.5586 15.1582 16.3841 15.287 16.2553C15.4157 16.1266 15.5902 16.0543 15.7723 16.0543C15.9543 16.0543 16.1289 16.1266 16.2576 16.2553C16.3863 16.3841 16.4586 16.5586 16.4586 16.7406V17.8516C16.4586 17.9137 16.4339 17.9734 16.3899 18.0173C16.346 18.0613 16.2864 18.086 16.2242 18.086Z" fill="#1C71A0"/>
<path d="M17.1283 18.086C17.0662 18.086 17.0065 18.0613 16.9626 18.0173C16.9186 17.9734 16.8939 17.9138 16.8939 17.8516V16.7407C16.8952 16.7113 16.8905 16.6821 16.8801 16.6546C16.8698 16.6272 16.8539 16.6021 16.8336 16.5809C16.8133 16.5597 16.7889 16.5428 16.762 16.5313C16.735 16.5198 16.7059 16.5139 16.6766 16.5139C16.6472 16.5139 16.6182 16.5198 16.5912 16.5313C16.5642 16.5428 16.5398 16.5597 16.5195 16.5809C16.4992 16.6021 16.4834 16.6272 16.473 16.6546C16.4626 16.6821 16.4579 16.7113 16.4592 16.7407V17.8516C16.4592 17.9138 16.4345 17.9734 16.3905 18.0173C16.3466 18.0613 16.287 18.086 16.2248 18.086C16.1626 18.086 16.103 18.0613 16.0591 18.0173C16.0151 17.9734 15.9904 17.9138 15.9904 17.8516V16.7407C15.9882 16.6492 16.0044 16.5582 16.0379 16.473C16.0714 16.3879 16.1216 16.3103 16.1855 16.2448C16.2494 16.1793 16.3258 16.1273 16.4101 16.0918C16.4945 16.0563 16.5851 16.038 16.6766 16.038C16.7681 16.038 16.8587 16.0563 16.943 16.0918C17.0273 16.1273 17.1037 16.1793 17.1676 16.2448C17.2316 16.3103 17.2817 16.3879 17.3152 16.473C17.3487 16.5582 17.3649 16.6492 17.3627 16.7407V17.8516C17.3627 17.9138 17.338 17.9734 17.294 18.0173C17.2501 18.0613 17.1905 18.086 17.1283 18.086Z" fill="#1C71A0"/>
<path d="M14.6055 18.0859C14.5433 18.0859 14.4837 18.0612 14.4397 18.0173C14.3958 17.9733 14.3711 17.9137 14.3711 17.8516V16.2891C14.3711 16.2269 14.3958 16.1673 14.4397 16.1233C14.4837 16.0794 14.5433 16.0547 14.6055 16.0547C14.6676 16.0547 14.7272 16.0794 14.7712 16.1233C14.8152 16.1673 14.8398 16.2269 14.8398 16.2891V17.8516C14.8398 17.9137 14.8152 17.9733 14.7712 18.0173C14.7272 18.0612 14.6676 18.0859 14.6055 18.0859Z" fill="#1C71A0"/>
<path d="M14.1541 18.0859C13.9721 18.0857 13.7977 18.0134 13.669 17.8847C13.5404 17.756 13.468 17.5816 13.4678 17.3996V16.2891C13.4678 16.2269 13.4925 16.1673 13.5364 16.1233C13.5804 16.0794 13.64 16.0547 13.7021 16.0547C13.7643 16.0547 13.8239 16.0794 13.8679 16.1233C13.9118 16.1673 13.9365 16.2269 13.9365 16.2891V17.3996C13.9353 17.4289 13.94 17.4582 13.9503 17.4857C13.9607 17.5131 13.9765 17.5382 13.9968 17.5594C14.0171 17.5806 14.0415 17.5974 14.0685 17.6089C14.0955 17.6205 14.1246 17.6264 14.1539 17.6264C14.1833 17.6264 14.2123 17.6205 14.2393 17.6089C14.2663 17.5974 14.2907 17.5806 14.311 17.5594C14.3313 17.5382 14.3471 17.5131 14.3575 17.4857C14.3678 17.4582 14.3725 17.4289 14.3713 17.3996V16.2891C14.3713 16.2269 14.396 16.1673 14.4399 16.1233C14.4839 16.0794 14.5435 16.0547 14.6057 16.0547C14.6678 16.0547 14.7274 16.0794 14.7714 16.1233C14.8153 16.1673 14.84 16.2269 14.84 16.2891V17.3996C14.8398 17.5815 14.7675 17.7559 14.6389 17.8846C14.5103 18.0132 14.336 18.0856 14.1541 18.0859Z" fill="#1C71A0"/>
<path d="M9.03517 4.55896C8.97301 4.55896 8.9134 4.53427 8.86945 4.49032C8.82549 4.44636 8.8008 4.38675 8.8008 4.32459V2.52537C8.74644 2.52716 8.69319 2.50973 8.65041 2.47615C8.6017 2.438 8.57005 2.38213 8.56236 2.32074C8.55468 2.25934 8.57158 2.1974 8.60939 2.14842L8.85002 1.83592C8.87998 1.79731 8.92126 1.76904 8.96808 1.75505C9.0149 1.74106 9.06492 1.74205 9.11115 1.75789C9.15737 1.77373 9.19749 1.80363 9.2259 1.84339C9.2543 1.88315 9.26956 1.9308 9.26955 1.97967V4.32342C9.2697 4.35429 9.26376 4.3849 9.25205 4.41347C9.24034 4.44204 9.2231 4.46802 9.20132 4.4899C9.17954 4.51179 9.15365 4.52916 9.12514 4.54101C9.09663 4.55286 9.06605 4.55896 9.03517 4.55896Z" fill="#1C71A0"/>
<path d="M9.18887 4.55896H8.86035C8.79819 4.55896 8.73858 4.53427 8.69462 4.49031C8.65067 4.44636 8.62598 4.38675 8.62598 4.32458C8.62598 4.26242 8.65067 4.20281 8.69462 4.15886C8.73858 4.1149 8.79819 4.09021 8.86035 4.09021H9.18887C9.25103 4.09021 9.31064 4.1149 9.3546 4.15886C9.39855 4.20281 9.42324 4.26242 9.42324 4.32458C9.42324 4.38675 9.39855 4.44636 9.3546 4.49031C9.31064 4.53427 9.25103 4.55896 9.18887 4.55896Z" fill="#1C71A0"/>
<path d="M10.6785 4.55897H10.4926C10.3244 4.5566 10.1617 4.49909 10.0294 4.39529C9.89708 4.29149 9.8025 4.14712 9.76017 3.98436C9.74386 3.92437 9.75204 3.86036 9.78291 3.80641C9.81379 3.75246 9.86484 3.71298 9.92482 3.69666C9.98481 3.68035 10.0488 3.68853 10.1028 3.7194C10.1567 3.75028 10.1962 3.80133 10.2125 3.86131C10.2279 3.92472 10.2635 3.98136 10.3141 4.02256C10.3647 4.06376 10.4274 4.08725 10.4926 4.08944H10.6785C10.8395 4.08944 10.9707 3.94647 10.9707 3.77069V2.61951C10.9702 2.55735 10.9944 2.49753 11.038 2.45321C11.0816 2.40889 11.141 2.3837 11.2031 2.38319C11.2653 2.38267 11.3251 2.40687 11.3694 2.45045C11.4138 2.49404 11.439 2.55345 11.4395 2.61561V2.6367V3.77147C11.4395 4.20545 11.0981 4.55897 10.6785 4.55897Z" fill="#1C71A0"/>
<path d="M10.5857 3.45391C10.4168 3.45398 10.2517 3.40397 10.1112 3.31019C9.97076 3.21641 9.86125 3.08307 9.79656 2.92705C9.73187 2.77102 9.7149 2.59932 9.74781 2.43365C9.78071 2.26798 9.86201 2.1158 9.98141 1.99634C10.1008 1.87688 10.253 1.79551 10.4186 1.76253C10.5843 1.72955 10.756 1.74644 10.912 1.81106C11.0681 1.87568 11.2015 1.98512 11.2953 2.12555C11.3892 2.26599 11.4393 2.4311 11.4393 2.6C11.4391 2.82634 11.3491 3.04335 11.1891 3.20344C11.0291 3.36352 10.8121 3.4536 10.5857 3.45391ZM10.5857 2.21523C10.5095 2.21516 10.435 2.23769 10.3716 2.27998C10.3082 2.32227 10.2588 2.38242 10.2296 2.45282C10.2004 2.52321 10.1927 2.60069 10.2076 2.67544C10.2224 2.75018 10.2591 2.81885 10.313 2.87274C10.3669 2.92663 10.4356 2.96332 10.5103 2.97817C10.5851 2.99301 10.6625 2.98535 10.7329 2.95615C10.8033 2.92695 10.8635 2.87753 10.9058 2.81413C10.9481 2.75073 10.9706 2.67621 10.9705 2.6C10.9704 2.49799 10.9298 2.40018 10.8577 2.32804C10.7856 2.25591 10.6878 2.21534 10.5857 2.21523Z" fill="#1C71A0"/>
</g>
<defs>
<clipPath id="clip0_1_596">
<rect width="20" height="20" fill="white"/>
</clipPath>
</defs>
</svg>
