<svg width="24" height="24" viewBox="0 0 24 24" fill="none" xmlns="http://www.w3.org/2000/svg">
<path d="M2.50001 12C2.50001 7.30558 6.30558 3.49998 11 3.49998C12.3579 3.49998 13.6401 3.81803 14.7775 4.38327C15.0248 4.50616 15.3249 4.40533 15.4478 4.15804C15.5706 3.91075 15.4698 3.61066 15.2225 3.48775C13.95 2.85536 12.5158 2.5 11 2.5C5.75327 2.5 1.5 6.7533 1.5 12C1.5 17.2467 5.7533 21.5 11 21.5C12.5158 21.5 13.95 21.1446 15.2225 20.5122C15.4698 20.3893 15.5706 20.0893 15.4478 19.842C15.3249 19.5947 15.0248 19.4938 14.7775 19.6167C13.6401 20.1819 12.3579 20.5 11 20.5C6.3056 20.5 2.50001 16.6944 2.50001 12V12Z" fill="#FE5C5C"/>
<path d="M17.3536 7.64646C17.1583 7.45118 16.8417 7.45118 16.6464 7.64646C16.4512 7.84172 16.4512 8.15831 16.6464 8.35357L19.7929 11.5H11.5C11.2239 11.5 11 11.7239 11 12C11 12.2761 11.2239 12.5 11.5 12.5H19.7929L16.6464 15.6464C16.4512 15.8417 16.4512 16.1583 16.6464 16.3536C16.8417 16.5488 17.1583 16.5488 17.3536 16.3536L21.3536 12.3536C21.4005 12.3068 21.4375 12.2512 21.4627 12.1899C21.4874 12.1296 21.5 12.0651 21.5 12C21.5002 11.8727 21.4516 11.7501 21.3643 11.6575L21.3523 11.6452L17.3536 7.64646Z" fill="#FE5C5C"/>
</svg>
