<svg width="24" height="24" viewBox="0 0 24 24" fill="none" xmlns="http://www.w3.org/2000/svg">
<path d="M13.8564 1.75L14.1504 3.88379V3.88672C14.1855 4.13488 14.2806 4.37126 14.4277 4.5752C14.5741 4.77806 14.7684 4.94219 14.9941 5.05273V5.05371C15.3172 5.21287 15.6276 5.39845 15.9219 5.6084L15.9229 5.60938C16.1299 5.75637 16.3709 5.84966 16.624 5.87891C16.8772 5.90815 17.1337 5.87205 17.3691 5.77539L19.3232 4.97168L21.1885 8.2627L19.5059 9.6123L19.5049 9.61328C19.3061 9.77318 19.1513 9.9799 19.0527 10.2139C18.9555 10.4448 18.9157 10.696 18.9365 10.9453V10.9463C18.944 11.0416 18.9499 11.1354 18.9541 11.2275L18.9609 11.5C18.959 11.8068 18.9368 12.1133 18.8945 12.417C18.8582 12.6787 18.9618 12.9403 19.168 13.1055L21.1865 14.7217L19.3223 18.0127L17.3672 17.21L17.3643 17.209L17.1836 17.1484C17.0003 17.0997 16.8089 17.0851 16.6191 17.1074C16.3672 17.1371 16.1272 17.23 15.9209 17.376C15.6228 17.5854 15.3097 17.7717 14.9844 17.9326H14.9834C14.7586 18.0442 14.5657 18.2097 14.4209 18.4131C14.2764 18.6161 14.1842 18.8515 14.1504 19.0977L13.8535 21.25H10.1436L9.84961 19.1162V19.1133L9.8125 18.9297C9.76417 18.7488 9.68263 18.5778 9.57227 18.4248C9.46169 18.2716 9.32409 18.1399 9.16602 18.0371L9.00195 17.9443C8.68024 17.7856 8.3713 17.6007 8.07812 17.3916L8.07715 17.3906L7.91602 17.291C7.74897 17.2013 7.56597 17.143 7.37598 17.1211C7.12283 17.0919 6.86625 17.128 6.63086 17.2246L4.67578 18.0273L2.81055 14.7363L4.49414 13.3877L4.49707 13.3857C4.69517 13.2252 4.8495 13.0174 4.94727 12.7832C5.02042 12.6079 5.06075 12.4211 5.06641 12.2324L5.06055 12.043C5.04488 11.8563 5.03516 11.6752 5.03516 11.498C5.03517 11.3184 5.04449 11.1397 5.06055 10.959V10.9541C5.08128 10.7032 5.04128 10.4506 4.94238 10.2188C4.84335 9.98662 4.68822 9.7815 4.49023 9.62305H4.49121L2.8125 8.27734L4.67676 4.98633L6.63281 5.79004L6.63574 5.79102C6.87154 5.88684 7.12773 5.92234 7.38086 5.89258C7.63396 5.86278 7.87505 5.76924 8.08203 5.62207L8.08105 5.62109C8.3783 5.41241 8.69126 5.22786 9.01562 5.06738H9.0166C9.24137 4.95584 9.43429 4.7903 9.5791 4.58691C9.72365 4.38386 9.81583 4.14845 9.84961 3.90234L10.1465 1.75H13.8564ZM12.3779 7.62891C11.5892 7.54941 10.796 7.72082 10.1084 8.11816C9.4212 8.51538 8.87344 9.11838 8.53809 9.8418C8.20289 10.565 8.0958 11.3752 8.22949 12.1621C8.36325 12.9492 8.73243 13.677 9.28906 14.2451C9.84588 14.8134 10.5632 15.1939 11.3438 15.332C12.1243 15.4702 12.9269 15.3587 13.6416 15.0137C14.3561 14.6686 14.9463 14.1081 15.333 13.4111C15.7196 12.7143 15.8855 11.9138 15.8086 11.1191V11.1182L15.7617 10.7871C15.6205 10.022 15.2559 9.31302 14.71 8.75586C14.0859 8.11893 13.2626 7.71951 12.3789 7.62891H12.3779Z" stroke="white" stroke-width="1.5" stroke-linecap="round" stroke-linejoin="round"/>
</svg>
