<svg width="38" height="38" viewBox="0 0 38 38" fill="none" xmlns="http://www.w3.org/2000/svg">
<g clip-path="url(#clip0_56_100)">
<path d="M26.9167 5.28824C29.3048 6.6671 31.2914 8.64574 32.6798 11.0283C34.0682 13.4109 34.8102 16.1147 34.8325 18.8722C34.8548 21.6297 34.1565 24.3452 32.8068 26.7498C31.4571 29.1545 29.5027 31.165 27.1372 32.5822C24.7717 33.9995 22.0771 34.7744 19.3201 34.8302C16.5631 34.886 13.8393 34.2208 11.4184 32.9004C8.99747 31.58 6.96338 29.6502 5.51747 27.3021C4.07156 24.954 3.26398 22.269 3.17466 19.5129L3.16675 18.9999L3.17466 18.4869C3.26334 15.7525 4.05903 13.0877 5.48418 10.7523C6.90932 8.41695 8.91528 6.49071 11.3065 5.16139C13.6977 3.83207 16.3926 3.14504 19.1283 3.16727C21.8641 3.1895 24.5475 3.92024 26.9167 5.28824ZM16.6425 14.4716C16.3108 14.2741 15.9183 14.2046 15.5389 14.2762C15.1596 14.3478 14.8194 14.5556 14.5825 14.8604C14.3456 15.1652 14.2282 15.5461 14.2524 15.9314C14.2766 16.3167 14.4408 16.6799 14.714 16.9527L16.7597 18.9999L14.714 21.0472L14.5826 21.196C14.3365 21.5142 14.2208 21.9142 14.2589 22.3147C14.2971 22.7151 14.4862 23.086 14.788 23.3521C15.0897 23.6182 15.4814 23.7594 15.8835 23.7471C16.2856 23.7348 16.6679 23.57 16.9528 23.286L19.0001 21.2403L21.0473 23.286L21.1962 23.4174C21.5144 23.6635 21.9144 23.7792 22.3148 23.741C22.7153 23.7029 23.0862 23.5137 23.3523 23.212C23.6183 22.9103 23.7596 22.5186 23.7473 22.1165C23.735 21.7144 23.5701 21.3321 23.2862 21.0472L21.2405 18.9999L23.2862 16.9527L23.4176 16.8038C23.6636 16.4856 23.7794 16.0856 23.7412 15.6852C23.7031 15.2847 23.5139 14.9138 23.2122 14.6477C22.9105 14.3817 22.5188 14.2404 22.1167 14.2527C21.7146 14.265 21.3323 14.4299 21.0473 14.7138L19.0001 16.7595L16.9528 14.7138L16.804 14.5824L16.6425 14.4716Z" fill="#00633A"/>
</g>
<defs>
<clipPath id="clip0_56_100">
<rect width="38" height="38" fill="white"/>
</clipPath>
</defs>
</svg>
