<svg width="20" height="20" viewBox="0 0 20 20" fill="none" xmlns="http://www.w3.org/2000/svg">
<g clip-path="url(#clip0_1_500)">
<path d="M17.5998 3.35278C17.1591 3.60786 16.8623 4.08415 16.8623 4.63005C16.8623 5.17595 17.1591 5.65224 17.5998 5.90731C18.0406 5.65224 18.3374 5.17595 18.3374 4.63005C18.3374 4.08415 18.0406 3.60786 17.5998 3.35278Z" fill="#E9A52D"/>
<path d="M17.6006 7.81246V8.22265L18.6082 8.01183C19.2487 7.87781 19.7076 7.31304 19.7076 6.65863V6.41773C19.7076 6.33043 19.6273 6.26523 19.5419 6.28312L18.7 6.45929C18.0594 6.59328 17.6006 7.15804 17.6006 7.81246Z" fill="#E9A52D"/>
<path d="M17.6002 7.81246V8.22265L16.5925 8.01183C15.952 7.87781 15.4932 7.31304 15.4932 6.65863V6.41773C15.4932 6.33043 15.5734 6.26523 15.6589 6.28312L16.5008 6.45929C17.1413 6.59328 17.6002 7.15804 17.6002 7.81246Z" fill="#E9A52D"/>
<path d="M17.6006 10.6041V11.0143L18.6082 10.8035C19.2487 10.6694 19.7076 10.1047 19.7076 9.45026V9.20936C19.7076 9.12205 19.6273 9.05686 19.5419 9.07475L18.7 9.25092C18.0594 9.38487 17.6006 9.94967 17.6006 10.6041Z" fill="#E9A52D"/>
<path d="M17.6002 10.6041V11.0143L16.5925 10.8035C15.952 10.6694 15.4932 10.1047 15.4932 9.45026V9.20936C15.4932 9.12205 15.5734 9.05686 15.6589 9.07475L16.5008 9.25092C17.1413 9.38487 17.6002 9.94967 17.6002 10.6041Z" fill="#E9A52D"/>
<path d="M14.1609 3.88697C14.1609 2.71623 13.2118 1.76709 12.041 1.76709H2.41285C1.24211 1.76713 0.292969 2.71627 0.292969 3.88701C0.292969 4.56076 0.607539 5.16064 1.09762 5.54881C1.31676 5.72236 1.44797 5.98373 1.44797 6.26326C1.44797 6.53631 1.32445 6.79471 1.11215 6.96639L0.824492 7.19916C0.488398 7.47104 0.292969 7.88018 0.292969 8.31248V16.3809C0.292969 16.8345 0.660781 17.2023 1.11437 17.2023H13.3395C13.7931 17.2023 14.1609 16.8346 14.1609 16.381V8.31248C14.1609 7.88018 13.9655 7.47104 13.6293 7.19916L13.3415 6.96639C13.1292 6.79471 13.0059 6.53627 13.0059 6.26326C13.0059 5.98373 13.1371 5.72232 13.3562 5.54877C13.8463 5.16068 14.1609 4.56076 14.1609 3.88697Z" fill="#F0E9E6"/>
<path d="M13.3566 5.54881C13.8467 5.16064 14.1613 4.56072 14.1613 3.88697C14.1613 2.71623 13.2121 1.76709 12.0414 1.76709H10.6982C11.869 1.76709 12.8181 2.71615 12.8181 3.88693C12.8181 4.56068 12.5036 5.16068 12.0135 5.54881C11.7943 5.72236 11.6632 5.98377 11.6632 6.2633C11.6632 6.53635 11.7865 6.79475 11.9988 6.96643L12.2866 7.19916C12.6227 7.471 12.8181 7.88018 12.8181 8.31248V16.381C12.8181 16.8346 12.4504 17.2023 11.9968 17.2023H13.3399C13.7935 17.2023 14.1612 16.8346 14.1612 16.381V8.31248C14.1612 7.88018 13.9659 7.47104 13.6297 7.19916L13.3419 6.96639C13.1296 6.79471 13.0062 6.53627 13.0062 6.26326C13.0062 5.98377 13.1375 5.72236 13.3566 5.54881Z" fill="#DCD2CD"/>
<path d="M12.2376 18.2328C16.2559 18.2328 19.5133 16.7983 19.5133 15.0286C19.5133 13.259 16.2559 11.8245 12.2376 11.8245C8.21936 11.8245 4.96191 13.259 4.96191 15.0286C4.96191 16.7983 8.21936 18.2328 12.2376 18.2328Z" fill="#E2A975"/>
<path d="M15.3368 12.129C17.176 12.7401 18.3742 13.7382 18.3742 14.8659C18.3742 16.6376 15.417 18.0897 11.6621 18.2229C11.8521 18.2294 12.0442 18.2328 12.2381 18.2328C16.2564 18.2328 19.5138 16.7982 19.5138 15.0286C19.5138 13.7471 17.8052 12.6415 15.3368 12.129Z" fill="#D19A6E"/>
<path d="M18.6677 8.29862C19.4396 8.13713 20 7.44741 20 6.65866V6.41776C20 6.14436 19.7486 5.94045 19.4813 5.99635L18.6394 6.17252C18.3564 6.23174 18.102 6.36217 17.893 6.54225V6.06518C18.3514 5.73506 18.6306 5.2003 18.6306 4.6301C18.6306 4.00131 18.2919 3.41475 17.7468 3.09928C17.656 3.04674 17.5441 3.04674 17.4533 3.09928C16.9082 3.41475 16.5695 4.00131 16.5695 4.6301C16.5695 5.20034 16.8487 5.7351 17.3071 6.06518V6.54225C17.0981 6.36217 16.8437 6.23174 16.5607 6.17252L15.7187 5.99635C15.4512 5.9403 15.2001 6.14475 15.2001 6.41776V6.65866C15.2001 7.44741 15.7604 8.13713 16.5324 8.29862L17.3071 8.46073V9.33389C17.0981 9.15381 16.8437 9.02338 16.5607 8.96416L15.7187 8.78799C15.4512 8.73194 15.2001 8.93639 15.2001 9.2094V9.4503C15.2001 10.239 15.7604 10.9287 16.5324 11.0903L17.3071 11.2523V12.4112C16.4989 12.078 15.5301 11.8256 14.4539 11.6784V8.31252C14.4539 7.78924 14.2205 7.30042 13.8135 6.97143L13.5256 6.73862C13.3815 6.62209 13.2988 6.44885 13.2988 6.26331C13.2988 6.07557 13.386 5.89889 13.5381 5.7785C14.1201 5.31756 14.4539 4.62819 14.4539 3.88713C14.4539 2.55666 13.3714 1.47424 12.041 1.47424H2.41289C1.08242 1.4742 0 2.55663 0 3.88709C0 4.62815 0.333789 5.31752 0.91582 5.77854C1.06789 5.89885 1.15508 6.07553 1.15508 6.26327C1.15508 6.44881 1.07234 6.62202 0.927734 6.7387L0.640469 6.97135C0.233437 7.30038 0 7.7892 0 8.31248V9.25663C0 9.41842 0.131133 9.54959 0.292969 9.54959C0.454805 9.54959 0.585938 9.41842 0.585938 9.25663V8.31248C0.585938 7.96698 0.740039 7.64428 1.00898 7.4269L1.29609 7.1944C1.57887 6.9662 1.74105 6.62682 1.74105 6.26327C1.74105 5.89538 1.57281 5.5512 1.27957 5.31916C0.83875 4.97002 0.585938 4.44807 0.585938 3.88709C0.585938 2.87971 1.40547 2.06014 2.41289 2.06014H12.041C13.0484 2.06014 13.868 2.87971 13.868 3.88709C13.868 4.44807 13.6152 4.97002 13.1745 5.31909C12.8811 5.5512 12.7129 5.89534 12.7129 6.26327C12.7129 6.62659 12.8749 6.96588 13.1572 7.1942L13.4452 7.42706C13.7139 7.64428 13.868 7.96702 13.868 8.31248V11.6099C13.3443 11.5587 12.7992 11.5315 12.2379 11.5315C7.99375 11.5315 4.66918 13.0677 4.66918 15.0287C4.66918 15.726 5.08988 16.3695 5.82246 16.9094H1.11445C0.823008 16.9094 0.585938 16.6723 0.585938 16.3809V10.6239C0.585938 10.4621 0.454805 10.3309 0.292969 10.3309C0.131133 10.3309 0 10.4621 0 10.6239V16.3809C0 16.9954 0.499961 17.4953 1.11445 17.4953H6.82531C8.18957 18.1347 10.0965 18.5258 12.2378 18.5258C14.2924 18.5258 16.2089 18.1623 17.6342 17.5022C17.781 17.4342 17.8449 17.26 17.7769 17.1132C17.7089 16.9664 17.5348 16.9024 17.3879 16.9705C16.0577 17.5865 14.1805 17.9399 12.2378 17.9399C10.3341 17.9399 8.54895 17.6154 7.21113 17.0262C5.96801 16.4788 5.25504 15.7507 5.25504 15.0287C5.25504 14.3066 5.96801 13.5785 7.21113 13.0311C8.54895 12.4419 10.3341 12.1174 12.2378 12.1174C13.8855 12.1174 15.7571 12.3673 17.2644 13.0311C18.5075 13.5785 19.2205 14.3066 19.2205 15.0287C19.2205 15.4672 18.9722 15.8958 18.4825 16.3024C18.358 16.4057 18.3409 16.5905 18.4443 16.7149C18.5477 16.8394 18.7323 16.8565 18.8569 16.7531C19.4781 16.2373 19.8065 15.641 19.8065 15.0287C19.8065 14.1172 19.0879 13.2976 17.893 12.6813V11.2523L18.6677 11.0902C19.4396 10.9287 20 10.239 20 9.45026V9.20936C20 8.936 19.7486 8.73202 19.4813 8.78799L18.6394 8.96416C18.3564 9.02338 18.102 9.15381 17.893 9.33389V8.46073L18.6677 8.29862ZM18.7594 6.74604L19.4141 6.60905V6.65866C19.4141 7.17155 19.0497 7.62006 18.5476 7.7251L17.893 7.86206V7.81245C17.893 7.29959 18.2574 6.85108 18.7594 6.74604ZM17.6 3.70682C17.8778 3.92944 18.0446 4.26944 18.0446 4.6301C18.0446 4.99077 17.8778 5.33077 17.6 5.55342C17.3223 5.33081 17.1555 4.99081 17.1555 4.6301C17.1555 4.2694 17.3223 3.9294 17.6 3.70682ZM15.786 6.65866V6.60905L16.4407 6.746C16.9427 6.85104 17.3071 7.29956 17.3071 7.81245V7.86206L16.6524 7.72506C16.1504 7.62006 15.786 7.17155 15.786 6.65866ZM15.786 9.45026V9.40065L16.4407 9.5376C16.9427 9.64264 17.3071 10.0912 17.3071 10.604V10.6537L16.6524 10.5167C16.1504 10.4117 15.786 9.96319 15.786 9.45026ZM18.7594 9.53764L19.4141 9.40069V9.4503C19.4141 9.96319 19.0497 10.4117 18.5476 10.5167L17.893 10.6537V10.6041C17.893 10.0912 18.2574 9.64268 18.7594 9.53764Z" fill="black"/>
<path d="M14.8545 14.1299C14.7144 14.2108 14.6664 14.39 14.7473 14.5301L15.4922 15.8203C15.5734 15.9611 15.7529 16.0081 15.8924 15.9275C16.0325 15.8466 16.0805 15.6674 15.9996 15.5273L15.2547 14.2371C15.1739 14.097 14.9946 14.049 14.8545 14.1299Z" fill="black"/>
<path d="M11.4336 13.6351C11.2935 13.716 11.2455 13.8952 11.3264 14.0353L12.6425 16.315C12.7238 16.4558 12.9033 16.5027 13.0427 16.4222C13.1829 16.3413 13.2309 16.1621 13.15 16.022L11.8338 13.7424C11.753 13.6022 11.5737 13.5542 11.4336 13.6351Z" fill="black"/>
<path d="M8.58305 14.1299C8.44293 14.2108 8.39492 14.39 8.47582 14.5301L9.2207 15.8203C9.30195 15.9611 9.48145 16.0081 9.6209 15.9275C9.76102 15.8466 9.80903 15.6674 9.72813 15.5273L8.98324 14.2371C8.90235 14.097 8.72309 14.049 8.58305 14.1299Z" fill="black"/>
</g>
<defs>
<clipPath id="clip0_1_500">
<rect width="20" height="20" fill="white"/>
</clipPath>
</defs>
</svg>
