<svg width="24" height="24" viewBox="0 0 24 24" fill="none" xmlns="http://www.w3.org/2000/svg">
<path d="M16.5986 7.00586C17.3617 7.00156 18.1184 7.14945 18.8242 7.43945C19.53 7.72946 20.1714 8.15676 20.7109 8.69629C21.2504 9.23579 21.6778 9.87733 21.9678 10.583C22.2577 11.2887 22.4047 12.0457 22.4004 12.8086L22.3926 13.0967C22.3131 14.5352 21.7051 15.8983 20.6816 16.9219C19.5898 18.0136 18.1113 18.6324 16.5674 18.6416C16.1535 18.6438 15.8161 18.3094 15.8135 17.8955C15.811 17.4814 16.1445 17.1433 16.5586 17.1406C17.7079 17.1337 18.8084 16.6739 19.6211 15.8613C20.4336 15.0487 20.8934 13.948 20.9004 12.7988C20.9035 12.2345 20.7946 11.6743 20.5801 11.1523C20.3655 10.6303 20.0495 10.1559 19.6504 9.75684C19.2512 9.35769 18.777 9.04077 18.2549 8.82617C17.7348 8.61245 17.1765 8.50459 16.6143 8.50684L15.9453 8.54883C15.5319 8.5743 15.1759 8.25908 15.1504 7.8457C15.1252 7.43267 15.4395 7.0765 15.8525 7.05078L16.5576 7.00781L16.5986 7.00586ZM8.10352 7L8.81543 7.05273C9.22845 7.08291 9.53882 7.44247 9.50879 7.85547C9.47836 8.26822 9.11984 8.57783 8.70703 8.54785L8.02832 8.49902C7.4708 8.50153 6.91855 8.61187 6.40332 8.8252C5.88199 9.04115 5.4078 9.3588 5.00879 9.75781C4.60996 10.1568 4.29301 10.6302 4.07715 11.1514C3.86123 11.6728 3.74993 12.2325 3.75 12.7969H3.75098C3.75019 13.3613 3.86053 13.9208 4.07617 14.4424C4.29182 14.9639 4.60872 15.4379 5.00781 15.8369C5.40699 16.2359 5.88168 16.553 6.40332 16.7686C6.41071 16.7709 6.46684 16.7894 6.59961 16.8135C6.73057 16.8372 6.89949 16.8599 7.09863 16.8828C7.49644 16.9285 7.98656 16.9684 8.48633 17C9.48849 17.0634 10.4878 17.0942 10.7979 17.0938C11.2119 17.0931 11.5489 17.4278 11.5498 17.8418C11.5505 18.256 11.215 18.5931 10.8008 18.5938C10.4463 18.5943 9.411 18.5606 8.3916 18.4961C7.88021 18.4638 7.36181 18.4229 6.92773 18.373C6.71143 18.3482 6.508 18.3208 6.33301 18.2891C6.17212 18.2599 5.98474 18.2191 5.83008 18.1553C5.12606 17.8644 4.48601 17.437 3.94727 16.8984C3.40848 16.3598 2.98056 15.7197 2.68945 15.0156C2.43487 14.3998 2.28872 13.7452 2.25684 13.0811L2.25 12.7949C2.25011 12.0342 2.40041 11.281 2.69141 10.5781C2.9827 9.87475 3.40996 9.23464 3.94824 8.69629C4.48643 8.15817 5.12598 7.73171 5.8291 7.44043C6.53259 7.14909 7.2874 6.99795 8.04883 6.99805L8.10352 7ZM17.2021 12.0479C17.6161 12.0481 17.9512 12.3838 17.9512 12.7979C17.9511 13.2118 17.616 13.5476 17.2021 13.5479L8.04688 13.5469C7.63312 13.5465 7.29803 13.2107 7.29785 12.7969C7.29804 12.3828 7.63381 12.0469 8.04785 12.0469L17.2021 12.0479Z" fill="#FEAE0D"/>
</svg>
