<svg width="22" height="27" viewBox="0 0 22 27" fill="none" xmlns="http://www.w3.org/2000/svg">
<path d="M11 26H2.66667C2.22464 26 1.80072 25.7073 1.48816 25.1864C1.17559 24.6654 1 23.9589 1 23.2222V14.8889C1 14.1521 1.17559 13.4456 1.48816 12.9247C1.80072 12.4037 2.22464 12.1111 2.66667 12.1111H11" stroke="#FEAF0D" stroke-linecap="round" stroke-linejoin="round"/>
<path d="M5.28564 12.1111V6.55556C5.28564 5.08213 5.88768 3.66905 6.95932 2.62718C8.03096 1.58532 9.48441 1 10.9999 1C12.5155 1 13.9689 1.58532 15.0405 2.62718C16.1122 3.66905 16.7142 5.08213 16.7142 6.55556V9.33333" stroke="#FEAF0D" stroke-linecap="round" stroke-linejoin="round"/>
<path d="M12.4285 16.2778C12.4285 17.3828 12.88 18.4426 13.6837 19.224C14.4875 20.0054 15.5775 20.4444 16.7142 20.4444C17.8508 20.4444 18.9409 20.0054 19.7446 19.224C20.5484 18.4426 20.9999 17.3828 20.9999 16.2778C20.9999 15.1727 20.5484 14.1129 19.7446 13.3315C18.9409 12.5501 17.8508 12.1111 16.7142 12.1111C15.5775 12.1111 14.4875 12.5501 13.6837 13.3315C12.88 14.1129 12.4285 15.1727 12.4285 16.2778Z" stroke="#FEAF0D" stroke-linecap="round" stroke-linejoin="round"/>
<path d="M13.8572 20.4443V25.9999L16.7143 24.611L19.5715 25.9999V20.4443" stroke="#FEAF0D" stroke-linecap="round" stroke-linejoin="round"/>
</svg>
