<svg width="24" height="24" viewBox="0 0 24 24" fill="none" xmlns="http://www.w3.org/2000/svg">
<g clip-path="url(#clip0_56_66)">
<path d="M11.5848 11.5869C11.2098 11.9621 10.9992 12.4708 10.9993 13.0013C10.9994 13.5317 11.2102 14.0404 11.5853 14.4154C11.9605 14.7904 12.4692 15.0011 12.9997 15.001C13.5301 15.0009 14.0388 14.7901 14.4138 14.4149" stroke="#00633B" stroke-width="1.5" stroke-linecap="round" stroke-linejoin="round"/>
<path d="M17.681 17.673C16.2782 18.5507 14.6547 19.0109 13 19C9.4 19 6.4 17 4 13C5.272 10.88 6.712 9.32203 8.32 8.32603M11.18 7.18003C11.779 7.05876 12.3888 6.99845 13 7.00003C16.6 7.00003 19.6 9.00003 22 13C21.334 14.11 20.621 15.067 19.862 15.87" stroke="#00633B" stroke-width="1.5" stroke-linecap="round" stroke-linejoin="round"/>
<path d="M4 4L22 22" stroke="#00633B" stroke-width="1.5" stroke-linecap="round" stroke-linejoin="round"/>
</g>
<defs>
<clipPath id="clip0_56_66">
<rect width="24" height="24" fill="white"/>
</clipPath>
</defs>
</svg>
