<svg width="20" height="20" viewBox="0 0 20 20" fill="none" xmlns="http://www.w3.org/2000/svg">
<mask id="mask0_1_444" style="mask-type:luminance" maskUnits="userSpaceOnUse" x="0" y="0" width="20" height="20">
<path d="M0 1.90735e-06H20V20H0V1.90735e-06Z" fill="white"/>
</mask>
<g mask="url(#mask0_1_444)">
<path d="M15.3125 6.5625L14.3574 5.84649C12.7391 4.63242 12.2203 2.20039 13.125 0.390625C9.67305 1.25352 7.57461 4.98555 8.4375 8.4375C6.71172 8.4375 5.3125 7.03828 5.3125 5.3125C3.34531 6.78789 2.1875 9.10352 2.1875 11.5625C2.1875 15.8773 5.68516 19.6094 10 19.6094C14.3148 19.6094 17.8125 15.8773 17.8125 11.5625C17.8125 9.59531 16.8863 7.74297 15.3125 6.5625Z" fill="#FFDA8F"/>
<path d="M12.3437 12.5781C12.3437 13.441 11.6441 14.1406 10.7812 14.1406C11.2129 12.4148 10.1633 10.666 8.4375 10.2344C8.88984 11.1391 8.63047 12.2379 7.82109 12.8449L7.34375 13.2031C6.55703 13.7934 6.09375 14.7195 6.09375 15.7031C6.09375 17.8605 7.84258 19.6094 10 19.6094C12.1574 19.6094 13.9062 17.8605 13.9062 15.7031C13.9062 14.4734 13.3273 13.316 12.3437 12.5781Z" fill="#FF7B79"/>
<path d="M11.016 17.8531C11.118 18.0293 11.1719 18.2313 11.1719 18.4375C11.1719 19.0836 10.6461 19.6094 10 19.6094C9.35391 19.6094 8.82812 19.0836 8.82812 18.4375C8.82812 18.2316 8.88203 18.0293 8.9832 17.8539L10 16.0938L11.016 17.8531Z" fill="#FFDA8F"/>
<path d="M15.7031 3.125C15.9187 3.125 16.0937 3.3 16.0937 3.51563C16.0937 3.73125 15.9187 3.90625 15.7031 3.90625C15.4875 3.90625 15.3125 3.73125 15.3125 3.51563C15.3125 3.3 15.4875 3.125 15.7031 3.125Z" fill="black"/>
<path d="M5.3125 1.79688C5.52812 1.79688 5.70312 1.97188 5.70312 2.1875C5.70312 2.40313 5.52812 2.57812 5.3125 2.57812C5.09687 2.57812 4.92188 2.40313 4.92188 2.1875C4.92188 1.97188 5.09687 1.79688 5.3125 1.79688Z" fill="black"/>
<path d="M0.390625 15.3125C0.60625 15.3125 0.78125 15.4875 0.78125 15.7031C0.78125 15.9188 0.60625 16.0938 0.390625 16.0938C0.175 16.0938 0 15.9188 0 15.7031C0 15.4875 0.175 15.3125 0.390625 15.3125Z" fill="black"/>
<path d="M10 19.6094C9.35391 19.6094 8.82812 19.0836 8.82812 18.4375C8.82812 18.2316 8.88203 18.0293 8.9832 17.8539L10 16.0938L11.016 17.8531C11.118 18.0293 11.1719 18.2312 11.1719 18.4375C11.1719 19.0836 10.6461 19.6094 10 19.6094Z" stroke="black" stroke-miterlimit="10" stroke-linecap="round" stroke-linejoin="round"/>
<path d="M12.3437 12.5781C13.3273 13.316 13.9062 14.4734 13.9062 15.7031C13.9062 17.8605 12.1574 19.6094 10 19.6094C7.84258 19.6094 6.09375 17.8605 6.09375 15.7031C6.09375 14.7195 6.55703 13.7934 7.34375 13.2031L7.82109 12.8449C8.63047 12.2379 8.88984 11.1391 8.4375 10.2344C10.1633 10.666 11.2129 12.4148 10.7812 14.1406C11.6441 14.1406 12.3437 13.441 12.3437 12.5781Z" stroke="black" stroke-miterlimit="10" stroke-linecap="round" stroke-linejoin="round"/>
<path d="M16.1328 15.8594C16.1328 15.6436 16.3077 15.4688 16.5234 15.4688C16.7391 15.4688 16.9141 15.6436 16.9141 15.8594C16.9141 16.0751 16.7391 16.25 16.5234 16.25C16.3077 16.25 16.1328 16.0751 16.1328 15.8594Z" fill="black"/>
<path d="M17.331 14.2983C17.6424 13.4372 17.8125 12.514 17.8125 11.5625C17.8125 9.59531 16.8863 7.74301 15.3125 6.5625L14.3574 5.84648C12.7391 4.63242 12.2203 2.20039 13.125 0.390625C9.67305 1.25352 7.57461 4.98555 8.4375 8.4375C6.71172 8.4375 5.3125 7.03832 5.3125 5.3125C3.34531 6.78789 2.1875 9.10352 2.1875 11.5625C2.1875 15.8773 5.68516 19.6094 10 19.6094C12.1283 19.6094 14.0578 18.7014 15.4668 17.2633" stroke="black" stroke-miterlimit="10" stroke-linecap="round" stroke-linejoin="round"/>
</g>
</svg>
