<svg width="24" height="24" viewBox="0 0 24 24" fill="none" xmlns="http://www.w3.org/2000/svg">
<path d="M13.8828 11.3018H16.709V9.67188H18.209V11.3018H21.2021V21.8877H9.57129V11.3018H12.3828V9.67188H13.8828V11.3018ZM19.2705 8.69141H11.5186V3.5H3.5V20.1709H8.80664V21.6709H2V2H12.5791L19.2705 8.69141ZM11.0713 20.3877H19.7021V15.8301H11.0713V20.3877ZM11.0713 14.3301H19.7021V12.8018H11.0713V14.3301ZM5.3457 13.1328H4.48047V11.4023H5.3457V13.1328ZM8.80664 13.1328H6.21094V11.4023H8.80664V13.1328ZM5.3457 10.5371H4.48047V8.80664H5.3457V10.5371ZM10.5371 10.5371H6.21094V8.80664H10.5371V10.5371ZM5.3457 7.94141H4.48047V6.21094H5.3457V7.94141ZM10.5371 7.94141H6.21094V6.21094H10.5371V7.94141ZM13.0186 7.19141H15.6494L13.0186 4.56055V7.19141Z" fill="#D9D9D9"/>
</svg>
