<svg width="22" height="20" viewBox="0 0 22 20" fill="none" xmlns="http://www.w3.org/2000/svg">
<path d="M12.241 9.34555C12.241 10.4748 12.7024 11.5578 13.5237 12.3563C14.345 13.1549 15.459 13.6035 16.6205 13.6035C17.7821 13.6035 18.896 13.1549 19.7173 12.3563C20.5387 11.5578 21.0001 10.4748 21.0001 9.34555C21.0001 8.21629 20.5387 7.13327 19.7173 6.33476C18.896 5.53625 17.7821 5.08765 16.6205 5.08765C15.459 5.08765 14.345 5.53625 13.5237 6.33476C12.7024 7.13327 12.241 8.21629 12.241 9.34555Z" stroke="#FEAF0D" stroke-linecap="round" stroke-linejoin="round"/>
<path d="M13.7009 13.6033V19.2805L16.6206 17.8612L19.5403 19.2805V13.6033" stroke="#FEAF0D" stroke-linecap="round" stroke-linejoin="round"/>
<path d="M5.08765 5.08765H11.219" stroke="#FEAF0D" stroke-linecap="round" stroke-linejoin="round"/>
<path d="M5.08765 9.17529H9.17524" stroke="#FEAF0D" stroke-linecap="round" stroke-linejoin="round"/>
<path d="M15.3066 4.06569V3C15.3066 1.89543 14.4111 1 13.3066 1H3C1.89543 1 1 1.89543 1 3V17.3942C1 18.4987 1.89543 19.3942 3 19.3942H11.219" stroke="#FEAF0D"/>
</svg>
