<svg width="13" height="12" viewBox="0 0 13 12" fill="none" xmlns="http://www.w3.org/2000/svg">
<path d="M6.49966 11L11.1055 6.30832C11.3879 6.02352 11.6126 5.68281 11.7662 5.30629C11.9199 4.92978 11.9994 4.5251 12 4.11614C12.0006 3.70718 11.9224 3.30223 11.77 2.9252C11.6175 2.54817 11.3939 2.20669 11.1124 1.92094C10.5378 1.33711 9.76663 1.00948 8.96305 1.00788C8.15946 1.00628 7.38704 1.33083 6.81038 1.91237L6.50241 2.22667L6.19581 1.91237C5.62136 1.32896 4.85044 1.00161 4.04718 1.00001C3.24393 0.998405 2.47181 1.32268 1.89521 1.9038C1.61267 2.1885 1.38789 2.52914 1.23414 2.9056C1.08039 3.28206 1.00077 3.68672 1.00001 4.09568C0.999237 4.50464 1.07733 4.90961 1.22966 5.28669C1.382 5.66378 1.6055 6.00533 1.88696 6.29117L6.49966 11Z" stroke="white" stroke-linecap="round" stroke-linejoin="round"/>
</svg>
