<svg width="24" height="24" viewBox="0 0 24 24" fill="none" xmlns="http://www.w3.org/2000/svg">
<path d="M7.09375 4.32178C7.468 4.1452 7.91472 4.30523 8.0918 4.6792L9.34668 7.33643C9.41633 7.42428 9.46542 7.52681 9.49023 7.63916L15.1777 19.6792C15.3546 20.0536 15.1945 20.5002 14.8203 20.6772C14.4458 20.854 13.9982 20.6943 13.8213 20.3198L10.6221 13.5474H8.04688C7.63325 13.5469 7.29824 13.211 7.29785 12.7974C7.29789 12.3832 7.63371 12.0464 8.04785 12.0464H9.91309L8.24414 8.51416L8.02832 8.49854C7.4708 8.50105 6.91855 8.61138 6.40332 8.82471C5.88194 9.04066 5.40784 9.35828 5.00879 9.75732C4.60983 10.1564 4.29305 10.6305 4.07715 11.1519C3.86132 11.6732 3.74993 12.2321 3.75 12.7964L3.75098 12.7974C3.75023 13.3617 3.86052 13.9213 4.07617 14.4429C4.29182 14.9643 4.60881 15.4375 5.00781 15.8364C5.40703 16.2355 5.8816 16.5525 6.40332 16.7681C6.41022 16.7703 6.46617 16.7888 6.59961 16.813C6.73059 16.8368 6.89946 16.8604 7.09863 16.8833C7.49644 16.929 7.98657 16.9679 8.48633 16.9995C9.48849 17.0629 10.4878 17.0937 10.7979 17.0933C11.212 17.0926 11.5491 17.4281 11.5498 17.8423C11.5504 18.2564 11.2149 18.5926 10.8008 18.5933C10.4463 18.5938 9.411 18.5601 8.3916 18.4956C7.88021 18.4633 7.3618 18.4234 6.92773 18.3735C6.71138 18.3487 6.50803 18.3203 6.33301 18.2886C6.17207 18.2594 5.98477 18.2186 5.83008 18.1548C5.12606 17.8639 4.48601 17.4365 3.94727 16.8979C3.40866 16.3594 2.98052 15.7199 2.68945 15.0161C2.43482 14.4002 2.28871 13.7448 2.25684 13.0806L2.25 12.7954C2.25008 12.0345 2.40031 11.2806 2.69141 10.5776C2.98269 9.87429 3.40998 9.23512 3.94824 8.69678C4.48652 8.1585 5.12581 7.73128 5.8291 7.43994C6.37518 7.21379 6.95213 7.07291 7.53906 7.021L6.73633 5.3208C6.55944 4.94636 6.71942 4.49879 7.09375 4.32178ZM16.5986 7.00635C17.3616 7.00205 18.1185 7.149 18.8242 7.43896C19.53 7.72897 20.1714 8.15629 20.7109 8.6958C21.2505 9.23533 21.6778 9.87678 21.9678 10.5825C22.2578 11.2883 22.4047 12.0451 22.4004 12.8081L22.3926 13.0972C22.313 14.5356 21.705 15.8979 20.6816 16.9214C19.5898 18.0132 18.1114 18.6319 16.5674 18.6411C16.1534 18.6433 15.816 18.309 15.8135 17.895C15.8111 17.481 16.1446 17.1428 16.5586 17.1401C17.7079 17.1333 18.8084 16.6736 19.6211 15.8608C20.4337 15.0481 20.8935 13.9476 20.9004 12.7983C20.9034 12.234 20.7946 11.6738 20.5801 11.1519C20.3655 10.6299 20.0494 10.1554 19.6504 9.75635C19.2513 9.35728 18.7769 9.04125 18.2549 8.82666C17.7348 8.61293 17.1765 8.5041 16.6143 8.50635L15.9453 8.54932C15.5321 8.57476 15.1761 8.25942 15.1504 7.84619C15.125 7.43303 15.4394 7.07699 15.8525 7.05127L16.5576 7.00732L16.5986 7.00635ZM16.96 12.0376C17.3741 12.0376 17.7098 12.3735 17.71 12.7876C17.7098 13.2016 17.3741 13.5376 16.96 13.5376H15.3467C14.9328 13.5374 14.5969 13.2015 14.5967 12.7876C14.5968 12.3736 14.9327 12.0378 15.3467 12.0376H16.96Z" fill="#FEAE0D"/>
</svg>
