<svg width="24" height="24" viewBox="0 0 24 24" fill="none" xmlns="http://www.w3.org/2000/svg">
<path d="M11.4995 20L18.6176 12.4933C19.0541 12.0376 19.4013 11.4925 19.6387 10.8901C19.8762 10.2876 19.999 9.64015 20 8.98582C20.001 8.33148 19.8801 7.68356 19.6445 7.08031C19.4089 6.47706 19.0633 5.93071 18.6282 5.4735C17.7403 4.53937 16.5484 4.01517 15.3065 4.01261C14.0646 4.01005 12.8709 4.52932 11.9797 5.45979L11.5037 5.96267L11.0299 5.45979C10.1421 4.52634 8.95067 4.00257 7.70928 4.00001C6.46789 3.99745 5.27461 4.51629 4.3835 5.44607C3.94686 5.9016 3.59947 6.44662 3.36185 7.04896C3.12423 7.6513 3.0012 8.29875 3.00001 8.95308C2.99882 9.60742 3.1195 10.2554 3.35493 10.8587C3.59036 11.462 3.93577 12.0085 4.37075 12.4659L11.4995 20Z" stroke="white" stroke-width="2" stroke-linecap="round" stroke-linejoin="round"/>
</svg>
