<svg width="24" height="24" viewBox="0 0 24 24" fill="none" xmlns="http://www.w3.org/2000/svg">
<path d="M12 5H21V20H12" stroke="white" stroke-width="1.5"/>
<path d="M9.46973 7.46973C9.76262 7.17683 10.2374 7.17683 10.5303 7.46973L15.5234 12.4629C15.5453 12.4842 15.5664 12.5068 15.5859 12.5312C15.5961 12.5439 15.6051 12.5572 15.6143 12.5703C15.6179 12.5755 15.6215 12.5807 15.625 12.5859C15.6466 12.6185 15.6638 12.6529 15.6797 12.6875C15.6836 12.6961 15.6887 12.7041 15.6924 12.7129C15.6974 12.7249 15.6998 12.7378 15.7041 12.75C15.7134 12.7762 15.7213 12.8023 15.7275 12.8291C15.7305 12.8419 15.735 12.8543 15.7373 12.8672C15.7409 12.8875 15.7441 12.9079 15.7461 12.9287C15.747 12.9378 15.7465 12.9469 15.7471 12.9561C15.7479 12.9706 15.75 12.9853 15.75 13C15.75 13.0247 15.7484 13.0491 15.7461 13.0732C15.7452 13.0824 15.7434 13.0915 15.7422 13.1006C15.7409 13.1104 15.739 13.1201 15.7373 13.1299C15.7337 13.1504 15.727 13.1702 15.7217 13.1904C15.7168 13.2089 15.7114 13.227 15.7051 13.2451C15.7004 13.2586 15.6979 13.2729 15.6924 13.2861C15.6872 13.2987 15.6797 13.3101 15.6738 13.3223C15.6635 13.344 15.6522 13.365 15.6396 13.3857C15.6345 13.3942 15.6314 13.4038 15.626 13.4121C15.6228 13.4169 15.6185 13.421 15.6152 13.4258C15.6032 13.4431 15.5918 13.461 15.5781 13.4775C15.5459 13.5164 15.5097 13.5532 15.4688 13.5859L10.4688 17.5859C10.1453 17.8446 9.67282 17.7921 9.41406 17.4688C9.15532 17.1453 9.20786 16.6728 9.53125 16.4141L12.8613 13.75H4C3.58583 13.75 3.25007 13.4142 3.25 13C3.25 12.5858 3.58579 12.25 4 12.25H13.1895L9.46973 8.53027C9.17686 8.2374 9.1769 7.76263 9.46973 7.46973Z" fill="white"/>
</svg>
