<svg width="24" height="24" viewBox="0 0 24 24" fill="none" xmlns="http://www.w3.org/2000/svg">
<g clip-path="url(#clip0_56_273)">
<path d="M20.4844 2C20.5485 2 20.6126 2.0063 20.6758 2.01855L20.6855 2.02051C20.6954 2.02252 20.7051 2.02504 20.7148 2.02734C20.7354 2.03219 20.7561 2.0368 20.7764 2.04297C20.79 2.04712 20.803 2.05291 20.8164 2.05762C20.8338 2.06372 20.8511 2.07005 20.8682 2.07715C20.8771 2.08085 20.8858 2.08492 20.8945 2.08887C20.9162 2.09864 20.9379 2.10872 20.959 2.12012C21.1028 2.19784 21.2249 2.31007 21.3154 2.44531C21.3434 2.48713 21.3677 2.53051 21.3887 2.5752C21.3958 2.59034 21.4028 2.60554 21.4092 2.62109C21.4295 2.67074 21.445 2.72172 21.457 2.77344C21.474 2.84634 21.4843 2.92195 21.4844 3V8.82813C21.4843 9.3803 21.0365 9.82805 20.4844 9.82813C19.9322 9.82809 19.4845 9.38033 19.4844 8.82813V5.41309L14.3105 10.5869C15.179 11.7568 15.6562 13.1819 15.6562 14.6563C15.6562 16.4671 14.9367 18.2039 13.6562 19.4844C12.3758 20.7648 10.6389 21.4843 8.82812 21.4844C7.01739 21.4843 5.28043 20.7647 4 19.4844C2.71967 18.2039 2.00005 16.467 2 14.6563C2.00004 12.8454 2.71958 11.1086 4 9.82813C5.28045 8.54768 7.0173 7.82818 8.82812 7.82813C10.302 7.82816 11.7269 8.30509 12.8965 9.17285L18.0703 4H14.6562C14.104 3.99997 13.6562 3.55226 13.6562 3C13.6564 2.44789 14.1041 2.00003 14.6562 2H20.4844ZM8.82812 9.82813C7.54774 9.82818 6.31944 10.3368 5.41406 11.2422C4.50871 12.1476 4.00004 13.3759 4 14.6563C4.00005 15.9366 4.5088 17.165 5.41406 18.0703C6.31942 18.9756 7.54782 19.4843 8.82812 19.4844C10.1085 19.4843 11.3368 18.9757 12.2422 18.0703C13.1476 17.1649 13.6562 15.9366 13.6562 14.6563C13.6562 13.3759 13.1475 12.1476 12.2422 11.2422C11.3368 10.3369 10.1084 9.82816 8.82812 9.82813Z" fill="white"/>
</g>
<defs>
<clipPath id="clip0_56_273">
<rect width="24" height="24" fill="white"/>
</clipPath>
</defs>
</svg>
