<svg width="32" height="32" viewBox="0 0 32 32" fill="none" xmlns="http://www.w3.org/2000/svg">
<path d="M25.7803 25.3357C25.7802 26.8544 24.549 28.0857 23.0303 28.0857H10.0303C8.51156 28.0857 7.28039 26.8544 7.28027 25.3357V17.8357H8.78027V25.3357C8.78039 26.026 9.33999 26.5857 10.0303 26.5857H23.0303C23.7206 26.5857 24.2802 26.026 24.2803 25.3357V17.3357H25.7803V25.3357ZM14.793 4.51249C15.4764 3.82917 16.5842 3.82917 17.2676 4.51249L28.0605 15.3055L27 16.366L16.207 5.57303C16.1094 5.4755 15.9511 5.4755 15.8535 5.57303L5.06055 16.366L4 15.3055L14.793 4.51249Z" fill="black"/>
</svg>
