<svg width="20" height="20" viewBox="0 0 20 20" fill="none" xmlns="http://www.w3.org/2000/svg">
<path d="M14.6875 10.9375L10 12.5L5.3125 10.9375L6.25 10.625L9.0625 9.6875L10 9.375L10.9375 9.6875L13.75 10.625L14.6875 10.9375Z" fill="#EDEBEB"/>
<path d="M14.6875 10.9375L10 12.5L8.75 12.0844L10.6281 11.4562C11.1281 11.2906 11.1281 10.5844 10.6281 10.4188L8.75 9.79062L9.0625 9.6875L10 9.375L14.6875 10.9375Z" fill="#D8CBCB"/>
<path d="M19.6875 6.5625V12.8125H14.6875V10.9375L13.75 10.625V6.5625H19.6875Z" fill="#EDEBEB"/>
<path d="M19.6875 6.5625V12.8125H14.6875V11.5625H16.5747C17.6034 11.5625 18.4375 10.7284 18.4375 9.69969V6.5625H19.6875Z" fill="#D3BEBE"/>
<path d="M14.6875 12.8125V16.25L10 17.8125V12.5L14.6875 10.9375V12.8125Z" fill="#EDEBEB"/>
<path d="M13.75 6.5625V10.625L10.9375 9.6875V5L13.75 6.5625Z" fill="#D8D6D6"/>
<path d="M10 12.5V17.8125L5.3125 16.25V11.5625V10.9375L10 12.5Z" fill="#D8D6D6"/>
<path d="M14.6875 10.9375V16.25L10 17.8125V16.5625L12.3312 15.7844C13.1781 15.5031 13.75 14.7094 13.75 13.8188V11.25L14.6875 10.9375Z" fill="#D3BEBE"/>
<path d="M10 16.5625V17.8125L5.3125 16.25V15L10 16.5625Z" fill="#D8CBCB"/>
<path d="M9.0625 3.75V9.6875L6.25 10.625V5.3125L9.0625 3.75Z" fill="#D8D6D6"/>
<path d="M9.0625 3.75V9.6875L6.25 10.625V9.6875L6.78437 9.50938C7.58437 9.24375 8.125 8.49375 8.125 7.65V4.27188L9.0625 3.75Z" fill="#D3BEBE"/>
<path d="M10.9375 5L13.75 6.5625H19.6875L16.875 5H10.9375Z" fill="#EDEBEB"/>
<path d="M19.6875 6.5625H13.75L12.625 5.9375H16.5062C16.6875 5.9375 16.75 5.69375 16.5906 5.60625L15.5 5H16.875L19.6875 6.5625Z" fill="#D8CBCB"/>
<path d="M9.0625 3.75L6.25 5.3125H0.3125L3.125 3.75H9.0625Z" fill="#EDEBEB"/>
<path d="M9.0625 3.75L6.25 5.3125H0.3125L1.4375 4.6875H5.11875C5.45 4.6875 5.77812 4.60312 6.06563 4.44063L7.30937 3.75H9.0625Z" fill="#D8CBCB"/>
<path d="M6.25 5.3125V10.625L5.3125 10.9375V11.5625H0.3125V5.3125H6.25Z" fill="#EDEBEB"/>
<path d="M6.25 5.3125V10.625L5.3125 10.9375V11.5625H0.3125V5.3125H6.25Z" fill="#EDEBEB"/>
<path d="M6.25 9.6875V10.625L5.3125 10.9375V11.5625H0.3125V9.6875H6.25Z" fill="#D8CBCB"/>
<path d="M5.14513 9.57779C5.13169 9.53685 5.10919 9.50154 5.077 9.47185C5.04732 9.43966 5.01169 9.41716 4.97107 9.40373C4.93169 9.3831 4.8895 9.37373 4.84419 9.37529C4.81513 9.37935 4.78575 9.3831 4.75669 9.38716C4.70075 9.40279 4.65232 9.43123 4.61138 9.47185C4.55232 9.53623 4.51482 9.6156 4.51482 9.70498V10.0597C4.51325 10.105 4.52263 10.1475 4.54325 10.1865C4.55669 10.2275 4.57919 10.2628 4.61138 10.2925C4.64107 10.3247 4.67669 10.3472 4.71732 10.3606C4.75669 10.3812 4.79888 10.3906 4.84419 10.389C4.87325 10.385 4.90263 10.3812 4.93169 10.3772C4.98763 10.3615 5.03607 10.3334 5.077 10.2925C5.13607 10.2281 5.17357 10.1487 5.17357 10.0594V9.70466C5.17513 9.65935 5.16575 9.61685 5.14513 9.57779Z" fill="white"/>
<path d="M2.33277 9.26529C2.31933 9.22435 2.29683 9.18904 2.26465 9.15935C2.23496 9.12716 2.19933 9.10466 2.15871 9.09123C2.11933 9.0706 2.07715 9.06123 2.03183 9.06279C2.00277 9.06685 1.9734 9.0706 1.94433 9.07466C1.8884 9.09029 1.83996 9.11873 1.79902 9.15935C1.73996 9.22373 1.70246 9.3031 1.70246 9.39248V9.74716C1.70027 9.79216 1.70965 9.83435 1.73027 9.87373C1.74371 9.91466 1.76621 9.94998 1.7984 9.97966C1.82808 10.0119 1.86371 10.0344 1.90433 10.0478C1.94371 10.0684 1.9859 10.0778 2.03121 10.0762C2.06027 10.0722 2.08965 10.0684 2.11871 10.0644C2.17465 10.0487 2.22308 10.0206 2.26402 9.97966C2.32308 9.91529 2.36058 9.83591 2.36058 9.74654V9.39185C2.36277 9.34685 2.3534 9.30435 2.33277 9.26529Z" fill="white"/>
<path d="M4.20763 6.45279C4.19419 6.41185 4.17169 6.37654 4.1395 6.34685C4.10982 6.31466 4.07419 6.29216 4.03357 6.27873C3.99419 6.2581 3.952 6.24873 3.90669 6.25029C3.87763 6.25435 3.84825 6.2581 3.81919 6.26216C3.76325 6.27779 3.71482 6.30623 3.67388 6.34685C3.61482 6.41123 3.57732 6.4906 3.57732 6.57998V6.93466C3.57575 6.97998 3.58513 7.02248 3.60575 7.06154C3.61919 7.10248 3.64169 7.13779 3.67388 7.16748C3.70357 7.19966 3.73919 7.22216 3.77982 7.2356C3.81919 7.25623 3.86138 7.2656 3.90669 7.26404C3.93575 7.25998 3.96513 7.25623 3.99419 7.25216C4.05013 7.23654 4.09857 7.20841 4.1395 7.16748C4.19857 7.1031 4.23607 7.02373 4.23607 6.93435V6.57966C4.23763 6.53435 4.22825 6.49185 4.20763 6.45279Z" fill="white"/>
<path d="M6.70763 12.3903C6.69419 12.3494 6.67169 12.314 6.6395 12.2844C6.60982 12.2522 6.57419 12.2297 6.53357 12.2162C6.49419 12.1956 6.452 12.1862 6.40669 12.1878C6.37763 12.1919 6.34825 12.1956 6.31919 12.1997C6.26325 12.2153 6.21482 12.2437 6.17388 12.2844C6.11482 12.3487 6.07732 12.4281 6.07732 12.5175V12.8722C6.07575 12.9175 6.08513 12.96 6.10575 12.999C6.11919 13.04 6.14169 13.0753 6.17388 13.105C6.20357 13.1372 6.23919 13.1597 6.27982 13.1731C6.31919 13.1937 6.36138 13.2031 6.40669 13.2015C6.43575 13.1975 6.46513 13.1937 6.49419 13.1897C6.55013 13.174 6.59857 13.1459 6.6395 13.105C6.69857 13.0406 6.73607 12.9612 6.73607 12.8719V12.5172C6.73763 12.4719 6.72825 12.4294 6.70763 12.3903Z" fill="white"/>
<path d="M7.95763 14.8903C7.94419 14.8494 7.92169 14.814 7.8895 14.7844C7.85982 14.7522 7.82419 14.7297 7.78357 14.7162C7.74419 14.6956 7.702 14.6862 7.65669 14.6878C7.62763 14.6919 7.59825 14.6956 7.56919 14.6997C7.51325 14.7153 7.46482 14.7437 7.42388 14.7844C7.36482 14.8487 7.32732 14.9281 7.32732 15.0175V15.3722C7.32575 15.4175 7.33513 15.46 7.35575 15.499C7.36919 15.54 7.39169 15.5753 7.42388 15.605C7.45357 15.6372 7.48919 15.6597 7.52982 15.6731C7.56919 15.6937 7.61138 15.7031 7.65669 15.7015C7.68575 15.6975 7.71513 15.6937 7.74419 15.6897C7.80013 15.674 7.84857 15.6459 7.8895 15.605C7.94857 15.5406 7.98607 15.4612 7.98607 15.3719V15.0172C7.98763 14.9719 7.97825 14.9294 7.95763 14.8903Z" fill="white"/>
<path d="M15.1451 7.70279C15.1317 7.66185 15.1092 7.62654 15.077 7.59685C15.047 7.56466 15.0117 7.54216 14.9711 7.52873C14.9317 7.5081 14.8895 7.49873 14.8442 7.50029C14.8151 7.50435 14.7858 7.5081 14.7567 7.51216C14.7008 7.52779 14.6523 7.55623 14.6114 7.59685C14.5523 7.66123 14.5148 7.7406 14.5148 7.82998V8.18466C14.5133 8.22998 14.5226 8.27248 14.5433 8.31154C14.5567 8.35248 14.5792 8.38779 14.6114 8.41748C14.6414 8.44966 14.6767 8.47216 14.7173 8.4856C14.7567 8.50623 14.7989 8.5156 14.8442 8.51404C14.8733 8.50998 14.9026 8.50623 14.9317 8.50216C14.9876 8.48654 15.0361 8.45841 15.077 8.41748C15.1361 8.3531 15.1736 8.27373 15.1736 8.18435V7.82966C15.1751 7.78435 15.1658 7.74185 15.1451 7.70279Z" fill="white"/>
<path d="M11.7076 13.3278C11.6942 13.2869 11.6717 13.2515 11.6395 13.2219C11.6095 13.1897 11.5742 13.1672 11.5336 13.1537C11.4942 13.1331 11.452 13.1237 11.4067 13.1253C11.3776 13.1294 11.3483 13.1331 11.3192 13.1372C11.2633 13.1528 11.2148 13.1812 11.1739 13.2219C11.1148 13.2862 11.0773 13.3656 11.0773 13.455V13.8097C11.0758 13.855 11.0851 13.8975 11.1058 13.9365C11.1192 13.9775 11.1417 14.0128 11.1739 14.0425C11.2039 14.0747 11.2392 14.0972 11.2798 14.1106C11.3192 14.1312 11.3614 14.1406 11.4067 14.139C11.4358 14.135 11.4651 14.1312 11.4942 14.1272C11.5501 14.1115 11.5986 14.0834 11.6395 14.0425C11.6986 13.9781 11.7361 13.8987 11.7361 13.8094V13.4547C11.7376 13.4094 11.7283 13.3669 11.7076 13.3278Z" fill="white"/>
<path d="M17.6451 9.26529C17.6317 9.22435 17.6092 9.18904 17.577 9.15935C17.547 9.12716 17.5117 9.10466 17.4711 9.09123C17.4317 9.0706 17.3895 9.06123 17.3442 9.06279C17.3151 9.06685 17.2858 9.0706 17.2567 9.07466C17.2008 9.09029 17.1523 9.11873 17.1114 9.15935C17.0523 9.22373 17.0148 9.3031 17.0148 9.39248V9.74716C17.0133 9.79248 17.0226 9.83498 17.0433 9.87404C17.0567 9.91498 17.0792 9.95029 17.1114 9.97998C17.1414 10.0122 17.1767 10.0347 17.2173 10.0481C17.2567 10.0687 17.2989 10.0781 17.3442 10.0765C17.3733 10.0725 17.4026 10.0687 17.4317 10.0647C17.4876 10.049 17.5361 10.0209 17.577 9.97998C17.6361 9.9156 17.6736 9.83623 17.6736 9.74685V9.39216C17.6751 9.34685 17.6658 9.30435 17.6451 9.26529Z" fill="white"/>
<path d="M19.8391 6.28937L17.0266 4.72688C16.9803 4.70094 16.9281 4.6875 16.875 4.6875H10.9375C10.795 4.6875 10.6706 4.78375 10.635 4.92156C10.6284 4.94781 10.6281 4.97406 10.6281 5H10.625V9.25406L10.0988 9.07875C10.0347 9.0575 9.965 9.0575 9.90094 9.07875L9.375 9.25406V3.75H9.37187C9.37187 3.72406 9.37187 3.69781 9.365 3.67156C9.32938 3.53375 9.205 3.4375 9.0625 3.4375H3.125C3.07188 3.4375 3.01969 3.45094 2.97344 3.47688L0.160937 5.03937C0.06 5.09531 0.003125 5.20094 0.003125 5.3125H0V11.5625C0 11.7353 0.139688 11.875 0.3125 11.875H5V16.25C5 16.3847 5.08594 16.5038 5.21375 16.5463L9.90125 18.1088C9.93312 18.1194 9.96688 18.125 10 18.125C10.0331 18.125 10.0669 18.1194 10.0988 18.1088L14.7863 16.5463C14.9141 16.5038 15 16.3847 15 16.25V13.125H19.6875C19.8603 13.125 20 12.9853 20 12.8125V6.5625H19.9969C19.9969 6.45094 19.94 6.34531 19.8391 6.28937ZM11.25 5.53094L13.4375 6.74625V10.1916L11.25 9.4625V5.53094ZM3.20594 4.0625H7.85656L6.16938 5H1.51844L3.20594 4.0625ZM0.625 11.25V5.625H5.9375V6.875C5.9375 7.04781 6.07719 7.1875 6.25 7.1875C6.42281 7.1875 6.5625 7.04781 6.5625 6.875V5.49625L8.75 4.28094V9.46219L6.5625 10.1912V8.125C6.5625 7.95219 6.42281 7.8125 6.25 7.8125C6.07719 7.8125 5.9375 7.95219 5.9375 8.125V10.4L5.21375 10.6412C5.08594 10.6837 5 10.8028 5 10.9375V11.25H0.625ZM5.625 11.3709L9.6875 12.725V17.3791L5.625 16.0247V11.3709ZM10.3125 17.3791V12.725L11.3488 12.3797C11.5122 12.3253 11.6009 12.1484 11.5463 11.9844C11.4916 11.8209 11.3162 11.7316 11.1509 11.7869L10 12.1706L6.30063 10.9375L10 9.70438L13.6994 10.9375L12.4012 11.3703C12.2378 11.4247 12.1491 11.6016 12.2037 11.7656C12.2584 11.9291 12.4338 12.0181 12.5991 11.9631L14.375 11.3709V16.0247L10.3125 17.3791ZM15 12.5V10.9375C15 10.8028 14.9141 10.6837 14.7863 10.6412L14.0625 10.4V6.875H14.6875C14.8603 6.875 15 6.73531 15 6.5625C15 6.38969 14.8603 6.25 14.6875 6.25H13.8309L12.1438 5.3125H16.7944L18.4816 6.25H15.9375C15.7647 6.25 15.625 6.38969 15.625 6.5625C15.625 6.73531 15.7647 6.875 15.9375 6.875H19.375V12.5H15Z" fill="#472B3C"/>
<path d="M12.8125 13.4375C12.6397 13.4375 12.5 13.5772 12.5 13.75V14.0625C12.5 14.2353 12.6397 14.375 12.8125 14.375C12.9853 14.375 13.125 14.2353 13.125 14.0625V13.75C13.125 13.5772 12.9853 13.4375 12.8125 13.4375Z" fill="#472B3C"/>
<path d="M16.25 10C16.0772 10 15.9375 10.1397 15.9375 10.3125V10.625C15.9375 10.7978 16.0772 10.9375 16.25 10.9375C16.4228 10.9375 16.5625 10.7978 16.5625 10.625V10.3125C16.5625 10.1397 16.4228 10 16.25 10Z" fill="#472B3C"/>
<path d="M18.125 7.8125C17.9522 7.8125 17.8125 7.95219 17.8125 8.125V8.4375C17.8125 8.61031 17.9522 8.75 18.125 8.75C18.2978 8.75 18.4375 8.61031 18.4375 8.4375V8.125C18.4375 7.95219 18.2978 7.8125 18.125 7.8125Z" fill="#472B3C"/>
<path d="M3.75 8.75C3.57719 8.75 3.4375 8.88969 3.4375 9.0625V9.375C3.4375 9.54781 3.57719 9.6875 3.75 9.6875C3.92281 9.6875 4.0625 9.54781 4.0625 9.375V9.0625C4.0625 8.88969 3.92281 8.75 3.75 8.75Z" fill="#472B3C"/>
<path d="M1.875 6.5625C1.70219 6.5625 1.5625 6.70219 1.5625 6.875V7.1875C1.5625 7.36031 1.70219 7.5 1.875 7.5C2.04781 7.5 2.1875 7.36031 2.1875 7.1875V6.875C2.1875 6.70219 2.04781 6.5625 1.875 6.5625Z" fill="#472B3C"/>
<path d="M11.25 15.3125C11.0772 15.3125 10.9375 15.4522 10.9375 15.625V15.9375C10.9375 16.1103 11.0772 16.25 11.25 16.25C11.4228 16.25 11.5625 16.1103 11.5625 15.9375V15.625C11.5625 15.4522 11.4228 15.3125 11.25 15.3125Z" fill="#472B3C"/>
<path d="M6.5625 14.6875C6.38969 14.6875 6.25 14.8272 6.25 15V15.3125C6.25 15.4853 6.38969 15.625 6.5625 15.625C6.73531 15.625 6.875 15.4853 6.875 15.3125V15C6.875 14.8272 6.73531 14.6875 6.5625 14.6875Z" fill="#472B3C"/>
<path d="M8.4375 13.4375C8.26469 13.4375 8.125 13.5772 8.125 13.75V14.0625C8.125 14.2353 8.26469 14.375 8.4375 14.375C8.61031 14.375 8.75 14.2353 8.75 14.0625V13.75C8.75 13.5772 8.61031 13.4375 8.4375 13.4375Z" fill="#472B3C"/>
<path d="M1.875 12.8125H1.5625C1.38969 12.8125 1.25 12.9522 1.25 13.125C1.25 13.2978 1.38969 13.4375 1.5625 13.4375H1.875C2.04781 13.4375 2.1875 13.2978 2.1875 13.125C2.1875 12.9522 2.04781 12.8125 1.875 12.8125Z" fill="#472B3C"/>
<path d="M3.125 13.4375C3.125 13.6103 3.26469 13.75 3.4375 13.75H3.75C3.92281 13.75 4.0625 13.6103 4.0625 13.4375C4.0625 13.2647 3.92281 13.125 3.75 13.125H3.4375C3.26469 13.125 3.125 13.2647 3.125 13.4375Z" fill="#472B3C"/>
<path d="M3.4375 12.1875H3.125C2.95219 12.1875 2.8125 12.3272 2.8125 12.5C2.8125 12.6728 2.95219 12.8125 3.125 12.8125H3.4375C3.61031 12.8125 3.75 12.6728 3.75 12.5C3.75 12.3272 3.61031 12.1875 3.4375 12.1875Z" fill="#472B3C"/>
<path d="M2.1875 14.0625H1.875C1.70219 14.0625 1.5625 14.2022 1.5625 14.375C1.5625 14.5478 1.70219 14.6875 1.875 14.6875H2.1875C2.36031 14.6875 2.5 14.5478 2.5 14.375C2.5 14.2022 2.36031 14.0625 2.1875 14.0625Z" fill="#472B3C"/>
<path d="M15.9375 15.625C15.9375 15.7978 16.0772 15.9375 16.25 15.9375H16.5625C16.7353 15.9375 16.875 15.7978 16.875 15.625C16.875 15.4522 16.7353 15.3125 16.5625 15.3125H16.25C16.0772 15.3125 15.9375 15.4522 15.9375 15.625Z" fill="#472B3C"/>
<path d="M17.5 16.25C17.5 16.4228 17.6397 16.5625 17.8125 16.5625H18.125C18.2978 16.5625 18.4375 16.4228 18.4375 16.25C18.4375 16.0772 18.2978 15.9375 18.125 15.9375H17.8125C17.6397 15.9375 17.5 16.0772 17.5 16.25Z" fill="#472B3C"/>
<path d="M16.875 14.6875C17.0478 14.6875 17.1875 14.5478 17.1875 14.375C17.1875 14.2022 17.0478 14.0625 16.875 14.0625H16.5625C16.3897 14.0625 16.25 14.2022 16.25 14.375C16.25 14.5478 16.3897 14.6875 16.5625 14.6875H16.875Z" fill="#472B3C"/>
<path d="M18.4375 14.375C18.6103 14.375 18.75 14.2353 18.75 14.0625C18.75 13.8897 18.6103 13.75 18.4375 13.75H18.125C17.9522 13.75 17.8125 13.8897 17.8125 14.0625C17.8125 14.2353 17.9522 14.375 18.125 14.375H18.4375Z" fill="#472B3C"/>
</svg>
