<svg width="20" height="20" viewBox="0 0 20 20" fill="none" xmlns="http://www.w3.org/2000/svg">
<g clip-path="url(#clip0_1_475)">
<path d="M13.5267 9.00417C13.0421 8.51971 13.045 7.68444 13.078 7.29C13.0888 7.15939 13.1921 7.05624 13.3226 7.04525C13.717 7.01229 14.5523 7.00954 15.0369 7.49401C15.5214 7.97863 15.5186 8.81374 15.4857 9.20834C15.4747 9.33895 15.3715 9.4421 15.2411 9.45294C14.8465 9.48589 14.0112 9.48879 13.5267 9.00417Z" fill="#89D47F"/>
<path d="M14.6057 8.8655C14.5308 8.8655 14.4557 8.83682 14.3985 8.77975L13.7518 8.13293C13.6374 8.01849 13.6374 7.83309 13.7518 7.71865C13.8663 7.60436 14.0518 7.60436 14.1661 7.71865L14.8129 8.36532C14.9274 8.47976 14.9274 8.66531 14.8129 8.77975C14.7557 8.83682 14.6806 8.8655 14.6057 8.8655Z" fill="#5EC783"/>
<path d="M14.8256 6.06965C14.3411 5.58518 14.3438 4.74992 14.3768 4.35548C14.3878 4.22486 14.4909 4.12171 14.6214 4.11088C15.016 4.07777 15.8511 4.07502 16.3357 4.55949C16.8202 5.04411 16.8174 5.87937 16.7845 6.27381C16.7736 6.40443 16.6703 6.50758 16.5399 6.51841C16.1453 6.55137 15.31 6.55427 14.8256 6.06965Z" fill="#89D47F"/>
<path d="M15.9046 5.93093C15.8295 5.93093 15.7546 5.9024 15.6973 5.84518L15.0507 5.19836C14.9362 5.08392 14.9362 4.89852 15.0507 4.78408C15.1651 4.66979 15.3505 4.66979 15.465 4.78408L16.1116 5.43075C16.2261 5.54519 16.2261 5.73074 16.1116 5.84518C16.0544 5.9024 15.9795 5.93093 15.9046 5.93093Z" fill="#5EC783"/>
<path d="M16.5206 9.31702C17.2059 9.31702 17.7946 9.90967 18.0502 10.2119C18.1347 10.3119 18.1347 10.4579 18.0502 10.5579C17.7946 10.8601 17.2059 11.4528 16.5206 11.4528C15.8355 11.4528 15.2468 10.8601 14.9912 10.5579C14.9066 10.4579 14.9066 10.3119 14.9912 10.2119C15.2468 9.90967 15.8355 9.31702 16.5206 9.31702Z" fill="#89D47F"/>
<path d="M16.9779 10.6777H16.0635C15.9016 10.6777 15.7705 10.5467 15.7705 10.3848C15.7705 10.223 15.9016 10.0918 16.0635 10.0918H16.9779C17.1398 10.0918 17.2709 10.223 17.2709 10.3848C17.2709 10.5467 17.1398 10.6777 16.9779 10.6777Z" fill="#5EC783"/>
<path d="M18.1135 6.41235C18.7987 6.41235 19.3873 7.00501 19.643 7.30728C19.7275 7.40723 19.7275 7.5531 19.643 7.6532C19.3873 7.95548 18.7987 8.54798 18.1135 8.54798C17.4282 8.54798 16.8396 7.95548 16.5839 7.6532C16.4994 7.5531 16.4994 7.40723 16.5839 7.30728C16.8396 7.00501 17.4282 6.41235 18.1135 6.41235Z" fill="#89D47F"/>
<path d="M18.5709 7.77307H17.6563C17.4945 7.77307 17.3633 7.642 17.3633 7.4801C17.3633 7.31821 17.4945 7.18713 17.6563 7.18713H18.5709C18.7328 7.18713 18.8638 7.31821 18.8638 7.4801C18.8638 7.642 18.7326 7.77307 18.5709 7.77307Z" fill="#5EC783"/>
<path d="M10.5899 18.9597C9.35756 18.9597 8.19895 18.4798 7.32752 17.6084L2.24848 12.5293C-0.358792 9.92188 -0.358944 5.67933 2.24848 3.0719C3.5116 1.80878 5.19099 1.11328 6.97733 1.11328C8.76353 1.11328 10.4429 1.80878 11.706 3.0719C12.9692 4.33502 13.6647 6.01441 13.6647 7.8006C13.6647 8.13889 13.6351 8.50037 13.6064 8.84995C13.5357 9.71116 13.4556 10.6873 13.8522 11.0838C15.6509 12.8825 15.6509 15.8095 13.8522 17.6084C12.9808 18.4798 11.8222 18.9597 10.5899 18.9597Z" fill="#FCF2D0"/>
<path d="M12.8894 18.3476C6.90165 17.0567 5.20396 6.89026 7.82603 1.16653C7.54664 1.13129 7.26328 1.11328 6.97733 1.11328C5.19099 1.11328 3.5116 1.80878 2.24848 3.0719C-0.358944 5.67933 -0.358792 9.92188 2.24848 12.5293L7.32752 17.6084C8.19895 18.4798 9.35755 18.9597 10.5899 18.9597C11.41 18.9597 12.1975 18.7468 12.8894 18.3476Z" fill="#F2D98D"/>
<path d="M8.05359 16.8827L2.97454 11.8036C0.763694 9.59295 0.763694 6.00851 2.97454 3.79766C5.18539 1.58681 8.76983 1.58681 10.9807 3.79766C12.086 4.90301 12.6387 6.35183 12.6387 7.80066C12.6387 9.04318 12.1649 10.8477 13.1268 11.8096C14.5277 13.2105 14.5277 15.4818 13.1268 16.8827C11.7259 18.2836 9.4545 18.2836 8.05359 16.8827Z" fill="#E3748E"/>
<path d="M11.4469 17.8301C6.93424 15.5004 5.58918 7.46264 7.43 2.15792C5.83438 2.03066 4.19498 2.57708 2.97443 3.79763C0.763732 6.00848 0.763732 9.59293 2.97443 11.8036L8.05347 16.8827C8.97358 17.8028 10.269 18.1185 11.4469 17.8301Z" fill="#DE5C6E"/>
<path d="M9.11283 7.80063C9.11283 8.98044 8.15656 9.93671 6.9769 9.93671C5.79709 9.93671 4.84082 8.98044 4.84082 7.80063C4.84082 6.62097 5.79709 5.66455 6.9769 5.66455C8.15656 5.66455 9.11283 6.62097 9.11283 7.80063Z" fill="#FCF2D0"/>
<path d="M6.69969 5.68298C6.24879 5.74173 5.81284 5.94376 5.46647 6.29013C4.63227 7.12433 4.63227 8.47687 5.46647 9.31107C5.84702 9.69162 6.33561 9.89807 6.83366 9.93134C6.62065 8.53043 6.57578 7.08008 6.69969 5.68298Z" fill="#F2D98D"/>
<path d="M8.51782 14.2414C8.51782 13.861 8.13056 13.5526 7.65295 13.5526C7.1752 13.5526 6.78809 13.861 6.78809 14.2414C6.78809 14.6218 7.1752 14.9302 7.65295 14.9302C8.13056 14.9302 8.51782 14.6218 8.51782 14.2414Z" fill="#EDA1AB"/>
<path d="M13.2055 14.2414C13.2055 13.861 12.8182 13.5526 12.3405 13.5526C11.8629 13.5526 11.4756 13.861 11.4756 14.2414C11.4756 14.6218 11.8629 14.9302 12.3405 14.9302C12.8182 14.9302 13.2055 14.6218 13.2055 14.2414Z" fill="#EDA1AB"/>
<path d="M10.4825 10.1208C10.4074 10.1208 10.3325 10.0923 10.2753 10.0351C10.1608 9.92065 10.1608 9.73525 10.2753 9.62081L10.7405 9.15542C10.855 9.04113 11.0405 9.04113 11.155 9.15542C11.2694 9.26986 11.2694 9.45541 11.155 9.56985L10.6896 10.0351C10.6323 10.0923 10.5574 10.1208 10.4825 10.1208Z" fill="#DE5C6E"/>
<path d="M3.7198 5.43573C3.64473 5.43573 3.56981 5.4072 3.51259 5.34998C3.39815 5.23554 3.39815 5.04999 3.51259 4.9357L4.13042 4.31787C4.24486 4.20359 4.43041 4.20359 4.54469 4.31803C4.65913 4.43232 4.65913 4.61786 4.54469 4.7323L3.92686 5.35013C3.8698 5.4072 3.79472 5.43573 3.7198 5.43573Z" fill="#E3748E"/>
<path d="M3.20711 7.21419C3.13203 7.21419 3.05711 7.1855 2.99989 7.12828C2.88545 7.01384 2.88545 6.82845 2.99989 6.71401L3.56142 6.15248C3.67586 6.03804 3.86141 6.03804 3.97585 6.15248C4.09013 6.26692 4.09013 6.45232 3.97585 6.56676L3.41417 7.12828C3.35695 7.1855 3.28203 7.21419 3.20711 7.21419Z" fill="#E3748E"/>
<path d="M19.8669 7.11808C19.5514 6.745 18.9041 6.11939 18.1137 6.11939C17.746 6.11939 17.4094 6.25489 17.1226 6.43723C17.2987 5.70023 17.3855 4.92402 17.3855 4.09821C17.3855 3.93647 17.2545 3.80524 17.0927 3.80524C16.9308 3.80524 16.7998 3.93647 16.7998 4.09821C16.7998 4.29032 16.7946 4.47953 16.7847 4.66599C16.7184 4.55399 16.6389 4.44809 16.5431 4.35242C15.9842 3.79349 15.0841 3.77808 14.5973 3.81882C14.3234 3.84171 14.1081 4.05716 14.0852 4.33106C14.0445 4.81781 14.0597 5.71793 14.6187 6.27686C15.068 6.72638 15.7378 6.82435 16.2361 6.82435C16.297 6.82435 16.3553 6.82282 16.4104 6.82038C16.2549 7.32407 16.0522 7.80793 15.8015 8.27607C15.7846 8.30735 15.7674 8.33771 15.7503 8.36869C15.6885 7.98768 15.5452 7.5879 15.2443 7.28699C14.8666 6.90934 14.3313 6.78132 13.8791 6.74927C13.659 5.28397 12.9802 3.93204 11.913 2.86484C10.5946 1.54633 8.84169 0.820312 6.97721 0.820312C5.20643 0.820312 3.51911 1.48315 2.22593 2.68662C2.10752 2.79694 2.10081 2.98218 2.21097 3.10074C2.3213 3.21915 2.50654 3.22586 2.6251 3.11554C3.80949 2.01325 5.35505 1.40625 6.97721 1.40625C8.68513 1.40625 10.291 2.07138 11.4987 3.27912C12.7064 4.48685 13.3716 6.09253 13.3716 7.8006C13.3716 8.12714 13.3424 8.48237 13.3142 8.826C13.2347 9.79569 13.1523 10.7985 13.6449 11.2909C14.3454 11.9916 14.7862 12.9207 14.886 13.9072C14.9013 14.0581 15.0285 14.1707 15.1771 14.1707C15.1869 14.1707 15.197 14.1702 15.2069 14.1692C15.3679 14.153 15.4852 14.0093 15.4689 13.8483C15.3691 12.8618 14.969 11.926 14.3318 11.1731C14.4696 11.0303 14.6097 10.8812 14.7507 10.7251C14.7563 10.7324 14.7615 10.7399 14.7676 10.7469C15.083 11.12 15.7301 11.7456 16.5207 11.7456C17.3114 11.7456 17.9585 11.12 18.2739 10.7471C18.4515 10.5371 18.4515 10.2326 18.2739 10.0227C17.9585 9.64982 17.3114 9.02405 16.5207 9.02405C16.3344 9.02405 16.156 9.05915 15.988 9.11729C16.1026 8.93571 16.2132 8.74818 16.3179 8.55271C16.4046 8.39112 16.4854 8.22755 16.5614 8.06245C16.913 8.41965 17.465 8.84095 18.1137 8.84095C18.9043 8.84095 19.5514 8.21534 19.8669 7.84241C20.0444 7.63245 20.0444 7.32789 19.8669 7.11808ZM13.9567 10.7179C13.8412 10.4526 13.8299 10.0101 13.8504 9.56178C14.1684 9.69712 14.5134 9.7458 14.8114 9.75617C14.5334 10.1009 14.2447 10.4181 13.9567 10.7179ZM15.1956 9.16276C14.917 9.18412 14.3082 9.19297 13.894 8.92472C13.8954 8.90778 13.8968 8.89069 13.8981 8.87391C13.9273 8.51853 13.9575 8.1511 13.9575 7.8006C13.9575 7.6471 13.9522 7.49436 13.9422 7.34254C14.2586 7.37671 14.6007 7.47193 14.83 7.70127C15.2273 8.09861 15.2203 8.83973 15.1956 9.16276ZM16.5207 9.60999C17.0827 9.60999 17.6018 10.139 17.8128 10.3848C17.6019 10.6307 17.0827 11.1598 16.5207 11.1598C15.9587 11.1598 15.4396 10.6308 15.2287 10.3848C15.4396 10.139 15.9587 9.60999 16.5207 9.60999ZM16.4944 6.22818C16.1717 6.25306 15.4304 6.25992 15.0331 5.86258C14.6356 5.46509 14.6426 4.72397 14.6673 4.4011C14.9901 4.37622 15.7315 4.36936 16.1288 4.7667C16.5263 5.16404 16.5193 5.90531 16.4944 6.22818ZM18.1137 8.25501C17.5517 8.25501 17.0326 7.72599 16.8217 7.48017C17.0326 7.23435 17.5517 6.70533 18.1137 6.70533C18.6757 6.70533 19.1949 7.2345 19.4057 7.48017C19.1949 7.72599 18.6757 8.25501 18.1137 8.25501ZM8.69475 6.08307C7.74763 5.13596 6.20664 5.13596 5.25953 6.08307C4.31257 7.03019 4.31257 8.57117 5.25953 9.51829C5.73316 9.99177 6.35511 10.2286 6.97721 10.2286C7.59916 10.2286 8.22126 9.99177 8.69475 9.51829C9.64186 8.57117 9.64186 7.03019 8.69475 6.08307ZM8.28047 9.10386C7.56178 9.82255 6.3925 9.82255 5.67381 9.10386C4.95512 8.38532 4.95512 7.21604 5.67381 6.49735C6.03315 6.13801 6.50511 5.95841 6.97706 5.95841C7.44902 5.95841 7.92112 6.13801 8.28032 6.49735C8.99901 7.21604 8.99901 8.38532 8.28047 9.10386ZM15.1703 14.9561C15.0116 14.9246 14.8575 15.0282 14.8263 15.1869C14.6606 16.0282 14.2522 16.7938 13.6449 17.4011C12.8288 18.2173 11.7438 18.6667 10.5897 18.6667C9.43556 18.6667 8.35066 18.2172 7.53462 17.4011L2.45557 12.3221C1.38425 11.2508 0.727514 9.82789 0.606359 8.31574C0.486578 6.82038 0.893835 5.32746 1.75306 4.11194C1.84644 3.9798 1.81501 3.797 1.68287 3.70362C1.55088 3.61023 1.36793 3.64166 1.27454 3.77381C0.336431 5.10102 -0.108363 6.73066 0.022405 8.36259C0.154546 10.0134 0.871557 11.5668 2.0413 12.7365L7.12019 17.8156C8.04701 18.7422 9.27916 19.2526 10.5897 19.2526C11.9003 19.2526 13.1325 18.7422 14.0591 17.8156C14.749 17.1257 15.213 16.2558 15.4011 15.3C15.4324 15.1413 15.3291 14.9873 15.1703 14.9561ZM8.15672 12.9558C7.99498 12.9558 7.86375 13.087 7.86375 13.2488V13.5542C7.86375 13.716 7.99498 13.8472 8.15672 13.8472C8.31862 13.8472 8.44969 13.716 8.44969 13.5542V13.2488C8.44969 13.087 8.31862 12.9558 8.15672 12.9558ZM12.9312 7.8006C12.9312 6.21018 12.3118 4.71512 11.1873 3.5904C10.0627 2.46597 8.56749 1.84662 6.97721 1.84662C5.38679 1.84662 3.89158 2.46597 2.76701 3.5904C1.64243 4.71512 1.02308 6.21033 1.02308 7.8006C1.02308 9.39103 1.64243 10.8862 2.76701 12.0108L7.8459 17.0899C8.60258 17.8464 9.59593 18.2247 10.5897 18.2245C11.5832 18.2243 12.577 17.8461 13.3334 17.0899C14.0663 16.357 14.4699 15.3826 14.4699 14.346C14.4699 13.3096 14.0663 12.3352 13.3334 11.6023C12.6968 10.9657 12.7916 9.80973 12.8754 8.78998C12.904 8.43964 12.9312 8.10883 12.9312 7.8006ZM12.9191 12.0166C13.5414 12.6389 13.884 13.4662 13.884 14.346C13.884 15.226 13.5414 16.0533 12.9191 16.6754C11.6347 17.9599 9.54466 17.9599 8.26033 16.6754L3.18128 11.5965C2.16734 10.5826 1.60902 9.23447 1.60902 7.8006C1.60902 6.36673 2.16734 5.01862 3.18128 4.00482C4.19508 2.99088 5.54319 2.4324 6.97721 2.4324C8.41108 2.4324 9.75905 2.99088 10.773 4.00482C11.7869 5.01862 12.3453 6.36673 12.3453 7.8006C12.3453 8.08472 12.3192 8.40409 12.2914 8.74207C12.1973 9.88862 12.0906 11.1882 12.9191 12.0166ZM11.8368 12.9558C11.6749 12.9558 11.5439 13.087 11.5439 13.2488V13.5542C11.5439 13.716 11.6749 13.8472 11.8368 13.8472C11.9986 13.8472 12.1298 13.716 12.1298 13.5542V13.2488C12.1298 13.087 11.9986 12.9558 11.8368 12.9558ZM10.6744 13.3469C10.5524 13.2405 10.3673 13.2533 10.2611 13.3753C10.1944 13.4519 10.0979 13.4958 9.99678 13.4958C9.89561 13.4958 9.79918 13.4519 9.7325 13.3753C9.62614 13.2533 9.44105 13.2407 9.31914 13.3469C9.19722 13.4532 9.18455 13.6383 9.29075 13.7602C9.46882 13.9646 9.72609 14.0817 9.99678 14.0817C10.2673 14.0817 10.5247 13.9646 10.7027 13.7602C10.8092 13.6383 10.7963 13.4532 10.6744 13.3469Z" fill="black"/>
</g>
<defs>
<clipPath id="clip0_1_475">
<rect width="20" height="20" fill="white"/>
</clipPath>
</defs>
</svg>
