<svg width="24" height="24" viewBox="0 0 24 24" fill="none" xmlns="http://www.w3.org/2000/svg">
<path fill-rule="evenodd" clip-rule="evenodd" d="M13.303 5.33333C13.303 3.49238 14.8022 2 16.6515 2C18.5008 2 20 3.49238 20 5.33333C20 7.17428 18.5008 8.66667 16.6515 8.66667C15.7177 8.66667 14.8738 8.28596 14.2671 7.67347L9.6317 10.8295C9.6745 11.0425 9.697 11.2625 9.697 11.4872C9.697 11.9322 9.609 12.3576 9.44959 12.7464L14.5323 16.0858C15.1092 15.6161 15.8473 15.3333 16.6515 15.3333C18.5008 15.3333 20 16.8257 20 18.6667C20 20.5076 18.5008 22 16.6515 22C14.8022 22 13.303 20.5076 13.303 18.6667C13.303 18.1845 13.4062 17.7255 13.5917 17.3111L8.55007 13.9987C7.96196 14.5098 7.1916 14.8205 6.34848 14.8205C4.49917 14.8205 3 13.3281 3 11.4872C3 9.64623 4.49917 8.15385 6.34848 8.15385C7.4119 8.15385 8.35853 8.64725 8.97145 9.41518L13.4639 6.35642C13.3594 6.03359 13.303 5.6896 13.303 5.33333Z" fill="#FEAF0D"/>
</svg>
